<?xml version="1.0" encoding="UTF-8"?>
<svg width="249px" height="89px" viewBox="0 0 249 89" version="1.1" xmlns="http://www.w3.org/2000/svg" xmlns:xlink="http://www.w3.org/1999/xlink">
    <!-- Generator: Sketch 43.2 (39069) - http://www.bohemiancoding.com/sketch -->
    <title>netlify-logo-horiz-black</title>
    <desc>Created with Sketch.</desc>
    <defs></defs>
    <g id="Page-1" stroke="none" stroke-width="1" fill="none" fill-rule="evenodd">
        <g id="netlify-logo-horiz-black" fill-rule="nonzero" fill="#000000">
            <g id="full-logo-light-(5)">
                <path d="M62.8278556,31.5239495 C63.2806691,31.7483193 63.6580135,32.047479 63.9598891,32.3840337 C63.9976235,32.4214286 63.9976235,32.4214286 64.035358,32.4214286 L64.0730925,32.4214286 L72.7520155,28.7193277 C72.78975,28.6819328 72.8274844,28.6445379 72.8274844,28.6071429 C72.8274844,28.5697479 72.8274844,28.5323529 72.78975,28.4949579 L64.6768437,20.4550421 C64.6391092,20.4176471 64.6013747,20.4176471 64.6013747,20.4176471 L64.5636403,20.4176471 C64.5259058,20.4176471 64.4881713,20.4550421 64.4881713,20.5298319 L62.7146524,31.4117647 C62.7523868,31.4491597 62.7901212,31.5239495 62.8278556,31.5239495 Z M44.8285241,24.2319328 C45.243603,24.8676471 45.5077441,25.6155463 45.583213,26.3634453 C45.583213,26.4008403 45.6209475,26.4382353 45.6586819,26.4756303 L58.5638631,31.972689 L58.6015975,31.972689 C58.6393319,31.972689 58.6770664,31.972689 58.6770664,31.9352942 C59.0544109,31.6361345 59.5072242,31.4117647 59.997772,31.2621849 C60.0355065,31.2621849 60.073241,31.22479 60.073241,31.15 L62.1863701,18.0243697 C62.1863701,17.9869748 62.1863701,17.9495798 62.1486357,17.9121849 L54.0734638,9.8722689 C54.0357294,9.83487395 54.0357294,9.83487395 53.9979949,9.83487395 C53.9602604,9.83487395 53.922526,9.8722689 53.922526,9.90966387 L44.8285241,24.0449579 C44.7907896,24.1197479 44.7907896,24.1945379 44.8285241,24.2319328 Z M88.9023591,44.462605 L75.0538168,30.7012605 C75.0160824,30.6638655 74.9783479,30.6638655 74.9783479,30.6638655 L74.9406134,30.6638655 L65.544736,34.6651261 C65.5070015,34.702521 65.469267,34.739916 65.469267,34.777311 C65.469267,34.8147058 65.5070015,34.8894958 65.544736,34.8894958 L88.7136869,44.7243697 L88.7514214,44.7243697 C88.7891557,44.7243697 88.8268902,44.7243697 88.8268902,44.6869748 L88.9023591,44.6121849 C88.9778281,44.6121849 88.9778281,44.5 88.9023591,44.462605 Z M86.6005578,46.7063026 L64.3749681,37.2827731 L64.3372336,37.2827731 C64.2994991,37.2827731 64.2617647,37.2827731 64.2240302,37.3201681 C63.620279,38.1428571 62.7146524,38.6663866 61.6580877,38.8159663 C61.6203534,38.8159663 61.5448845,38.8533613 61.5448845,38.9281513 L59.1676142,53.5495798 C59.1676142,53.5869748 59.1676142,53.6243697 59.2053486,53.6617647 C60.0355065,54.297479 60.5260544,55.2323529 60.6392577,56.2794118 C60.6392577,56.3542016 60.6769922,56.3915966 60.7524611,56.3915966 L74.1859245,59.1962184 L74.223659,59.1962184 C74.2613933,59.1962184 74.2991278,59.1962184 74.2991278,59.1588235 L86.6005578,46.9306723 C86.6382923,46.8932773 86.6382923,46.8558824 86.6382923,46.8184874 C86.6382923,46.7810924 86.6382923,46.7436974 86.6005578,46.7063026 Z M57.1676886,34.2163866 L45.0171963,29.0558824 L44.9794618,29.0558824 C44.9417274,29.0558824 44.9039929,29.0932773 44.8662586,29.1306723 C44.0361007,30.4021008 42.639926,31.15 41.1305482,31.15 C40.9041415,31.15 40.6777349,31.112605 40.4135936,31.07521 L40.3758593,31.07521 C40.3381248,31.07521 40.3003903,31.112605 40.2626559,31.15 L30.2630272,46.6689076 C30.2252927,46.7063026 30.2252927,46.7810924 30.2630272,46.8184874 C30.3007617,46.8558824 30.338496,46.8558824 30.3762305,46.8558824 L30.4139649,46.8558824 L57.0922196,35.4504202 C57.1299541,35.4130252 57.1676886,35.3756303 57.1676886,35.3382353 L57.1676886,35.1886555 L57.1676886,35.0016807 C57.1676886,34.777311 57.2054229,34.5529411 57.2431574,34.3659663 C57.2431574,34.2911765 57.2054229,34.2537815 57.1676886,34.2163866 Z M71.8086542,61.3651261 L59.997772,58.9344537 L59.9600377,58.9344537 C59.9223032,58.9344537 59.8845688,58.9718487 59.8468343,58.9718487 C59.394021,59.5327731 58.8280043,59.9815126 58.1487841,60.2432773 C58.1110497,60.2432773 58.0733152,60.3180672 58.0733152,60.3554621 L55.2432316,77.7815126 C55.2432316,77.8563026 55.2809661,77.8936974 55.3187005,77.9310924 L55.3941695,77.9310924 C55.4319039,77.9310924 55.4696384,77.9310924 55.4696384,77.8936974 L71.8463887,61.6268908 C71.8841232,61.5894958 71.8841232,61.5521008 71.8841232,61.5147058 C71.8841232,61.402521 71.8463887,61.3651261 71.8086542,61.3651261 Z M55.3187005,60.1684874 C54.1866671,59.7197479 53.3565092,58.710084 53.0546336,57.5508403 C53.0546336,57.5134453 53.0168992,57.4760505 52.9414304,57.4386555 L31.0554506,52.9138655 C31.0554506,52.9138655 31.0554506,52.9138655 31.0177161,52.9138655 C30.9799817,52.9138655 30.9422472,52.9512605 30.9045127,52.9886555 C30.7913095,53.1756303 30.7158405,53.32521 30.6026373,53.47479 C30.5649028,53.5121849 30.5649028,53.5869748 30.6026373,53.6243697 L50.5264256,82.4932773 C50.5641601,82.5306723 50.5641601,82.5306723 50.6018946,82.5306723 C50.639629,82.5306723 50.6773635,82.5306723 50.6773635,82.4932773 L51.8848657,81.2966387 C51.8848657,81.2592437 51.9226002,81.2592437 51.9226002,81.2218487 L55.3187005,60.2806723 C55.3941695,60.2806723 55.3941695,60.2058824 55.3187005,60.1684874 Z M31.5082639,50.2588235 C31.5082639,50.3336134 31.5459984,50.3710084 31.6214673,50.3710084 L53.3187748,54.8584034 L53.3565092,54.8584034 C53.3942437,54.8584034 53.4319782,54.8210084 53.4697126,54.7836134 C54.1111982,53.6617647 55.2432316,52.9138655 56.5262029,52.8390756 C56.6016718,52.8390756 56.6394062,52.8016807 56.6394062,52.7268908 L58.978942,38.3298319 C58.978942,38.292437 58.978942,38.2176471 58.9034731,38.2176471 C58.7525353,38.1054621 58.6015975,37.9932773 58.4129253,37.8063026 C58.3751908,37.7689076 58.3374563,37.7689076 58.3374563,37.7689076 L58.2997219,37.7689076 L31.4705294,49.2491597 C31.3950607,49.2865547 31.3950607,49.3239495 31.3950607,49.3987395 C31.4327951,49.6978992 31.5082639,49.9596639 31.5082639,50.2588235 Z M22.4142621,53.8861345 C22.3010586,53.7365547 22.1878554,53.5869748 22.074652,53.4 C22.0369175,53.362605 21.9991831,53.32521 21.9614486,53.32521 L21.9237143,53.32521 L12.5655711,57.3264706 C12.5278367,57.3264706 12.4901022,57.3638655 12.4901022,57.4012605 C12.4901022,57.4386555 12.4901022,57.4760505 12.5278367,57.5134453 L17.0937049,62.0382353 C17.1314394,62.0756303 17.1691738,62.0756303 17.1691738,62.0756303 C17.2069082,62.0756303 17.2446426,62.0382353 17.2823771,62.0008403 L22.4519965,53.9609244 C22.4519965,53.9609244 22.4519965,53.9235294 22.4142621,53.8861345 Z M28.6027115,55.3445379 C28.564977,55.3071429 28.5272426,55.2697479 28.4895081,55.2697479 L28.4517736,55.2697479 C27.7725537,55.5689076 27.0933335,55.7184874 26.3763791,55.7184874 C25.8103624,55.7184874 25.2820801,55.6436974 24.7160634,55.4567227 L24.6783289,55.4567227 C24.6405945,55.4567227 24.60286,55.4941176 24.5651255,55.5315126 L19.1313651,63.9827731 L19.0936307,64.0201681 C19.0558962,64.057563 19.0558962,64.1323529 19.0936307,64.1697479 L44.073835,88.962605 C44.1115695,89 44.149304,89 44.149304,89 C44.1870384,89 44.2247729,89 44.2247729,88.962605 L48.6019688,84.587395 C48.6397033,84.55 48.6397033,84.47521 48.6019688,84.4378151 L28.6027115,55.3445379 Z M25.0934078,45.5844537 C25.1311423,45.6218487 25.1688767,45.6592437 25.2066112,45.6592437 L25.2443457,45.6592437 C25.62169,45.5844537 26.036769,45.5096639 26.4141136,45.5096639 C26.8291924,45.5096639 27.2820057,45.5844537 27.6970847,45.6966387 L27.7348192,45.6966387 C27.7725537,45.6966387 27.8102881,45.6592437 27.8480225,45.6218487 L37.9608545,29.9159663 C37.998589,29.8785714 37.998589,29.8037815 37.9608545,29.7663866 C37.1684311,28.9436974 36.7156178,27.8592437 36.7156178,26.7 C36.7156178,26.3634453 36.7533523,26.0268908 36.8288211,25.6903361 C36.8288211,25.6155463 36.7910866,25.5781513 36.7533523,25.5407563 C35.470381,24.9798319 24.1123122,20.1932773 24.1123122,20.1558824 L24.0745777,20.1558824 C24.0368433,20.1558824 23.9991088,20.1558824 23.9991088,20.1932773 L14.3768246,29.7663866 C14.3390902,29.8037815 14.3390902,29.8785714 14.3768246,29.9159663 L25.0934078,45.5844537 Z M26.1877068,18.2113445 C26.1877068,18.2113445 37.6589789,23.072689 38.1495268,23.2970589 L38.1872612,23.2970589 C38.2249956,23.2970589 38.2249956,23.2970589 38.2627301,23.2596639 C39.0551535,22.6239495 40.0739837,22.25 41.0928137,22.25 C41.5833615,22.25 42.0739094,22.32479 42.5644572,22.4743697 L42.6021917,22.4743697 C42.639926,22.4743697 42.6776605,22.4369748 42.7153949,22.3995798 L52.0358036,7.9277311 C52.0735381,7.89033613 52.0735381,7.81554621 52.0358036,7.77815126 L44.3002418,0.112184874 C44.2625074,0.074789916 44.2625074,0.074789916 44.2247729,0.074789916 C44.1870384,0.074789916 44.149304,0.074789916 44.149304,0.112184874 L26.1877068,17.9869748 C26.1499723,18.0243697 26.1499723,18.0617647 26.1499723,18.0991597 C26.112238,18.1739495 26.1499723,18.1739495 26.1877068,18.2113445 Z M21.7350419,48.3142858 C21.7727764,48.3142858 21.8105109,48.2768908 21.8482453,48.2394958 C22.074652,47.7907563 22.4142621,47.3794118 22.7538721,47.0054621 C22.7916064,46.9680672 22.7916064,46.8932773 22.7538721,46.8558824 C22.6406687,46.7063026 12.4146333,31.8978992 12.4146333,31.8605042 C12.3768989,31.8231092 12.3768989,31.8231092 12.30143,31.7857142 C12.2636955,31.7857142 12.2259611,31.7857142 12.2259611,31.8231092 L0.301875583,43.639916 C0.264141136,43.677311 0.264141136,43.7147058 0.264141136,43.7521008 C0.264141136,43.7894958 0.301875583,43.8268908 0.377344478,43.8268908 L21.7350419,48.3142858 C21.6973075,48.3142858 21.6973075,48.3142858 21.7350419,48.3142858 Z M20.7539464,50.8945379 C20.7539464,50.8197479 20.7162119,50.7823529 20.6407429,50.7823529 L2.11312907,46.9306723 C2.11312907,46.9306723 2.11312907,46.9306723 2.07539464,46.9306723 C2.03766018,46.9306723 1.99992573,46.9680672 1.96219129,47.0054621 C1.92445684,47.0428571 1.96219129,47.1176471 1.99992573,47.1550421 L10.2637698,55.3819328 C10.3015043,55.4193277 10.3392387,55.4193277 10.3392387,55.4193277 L10.3769732,55.4193277 L20.6407429,51.0441176 C20.7162119,50.9693277 20.7539464,50.9319328 20.7539464,50.8945379 Z" id="Combined-Shape"></path>
                <path d="M180.748005,22.3995798 L186.785517,22.3995798 L186.785517,61.3651261 L180.748005,61.3651261 L180.748005,22.3995798 Z M118.976714,33.3936974 C115.731552,33.3936974 113.127875,34.6277311 111.127949,37.0584034 L110.939277,33.8798319 L105.279109,33.8798319 L105.279109,61.3277311 L111.316621,61.3277311 L111.316621,41.807563 C112.524124,39.5638655 114.335377,38.4420168 116.750382,38.4420168 C118.410697,38.4420168 119.6182,38.8533613 120.372889,39.7134453 C121.127578,40.5361345 121.467188,41.8449579 121.467188,43.5651261 L121.467188,61.3277311 L127.504699,61.3277311 L127.504699,43.1911765 C127.42923,36.6844537 124.599147,33.3936974 118.976714,33.3936974 Z M145.051218,33.3936974 C142.749416,33.3936974 140.674022,33.9920168 138.787299,35.1886555 C136.900577,36.3852942 135.466668,38.0680672 134.410103,40.2369748 C133.391273,42.4058824 132.862991,44.8365547 132.862991,47.5663866 L132.862991,48.3142858 C132.862991,52.3903361 134.070493,55.6810924 136.447763,58.1491597 C138.825034,60.6172269 141.919258,61.8512605 145.768172,61.8512605 C147.994505,61.8512605 150.032165,61.402521 151.843418,60.5050421 C153.654672,59.607563 155.088581,58.3361345 156.145145,56.6907563 L152.899983,53.5121849 C151.164198,55.7932773 148.900131,56.952521 146.145516,56.952521 C144.183325,56.952521 142.52301,56.2794118 141.240038,54.9705882 C139.919333,53.6617647 139.202378,51.8668068 139.013706,49.5857142 L156.597959,49.5857142 L156.597959,47.1176471 C156.597959,42.742437 155.579129,39.3768908 153.616937,36.9836134 C151.541542,34.5903361 148.711459,33.3936974 145.051218,33.3936974 Z M150.560447,45.0609244 L139.05144,45.0609244 C139.315582,42.9294118 139.994801,41.2840337 141.013632,40.12479 C142.032462,38.9281513 143.390902,38.3672269 145.051218,38.3672269 C146.711533,38.3672269 148.032239,38.8907563 148.9756,39.9378151 C149.918962,40.9848739 150.447244,42.5554621 150.598182,44.6121849 L150.598182,45.0609244 L150.560447,45.0609244 Z M170.18236,56.0550421 C169.767281,55.6063026 169.578609,54.8210084 169.578609,53.7739495 L169.578609,38.4420168 L174.33315,38.4420168 L174.33315,33.8798319 L169.578609,33.8798319 L169.578609,27.2235294 L163.541097,27.2235294 L163.541097,33.8798319 L159.126167,33.8798319 L159.126167,38.4420168 L163.541097,38.4420168 L163.541097,53.9983193 C163.541097,59.2336134 165.880633,61.8512605 170.52197,61.8512605 C171.804941,61.8512605 173.125646,61.6642858 174.521822,61.2529411 L174.521822,56.4663866 C173.804866,56.6533613 173.087912,56.7281513 172.408692,56.7281513 C171.314394,56.7655463 170.597438,56.5411765 170.18236,56.0550421 Z M196.14366,33.9172269 L202.181172,33.9172269 L202.181172,61.3651261 L196.14366,61.3651261 L196.14366,33.9172269 Z M236.44405,52.539916 L230.746148,33.9172269 L224.21809,33.9172269 L233.689436,61.2155463 L232.821544,63.5714286 C232.36873,64.9176471 231.764979,65.852521 230.972556,66.4134453 C230.217866,66.9743697 229.048098,67.2735294 227.538721,67.2735294 L226.406687,67.1987395 L226.406687,71.9852942 C227.463252,72.2844537 228.444347,72.4340337 229.31224,72.4340337 C233.236622,72.4340337 236.028972,70.1155463 237.689288,65.5159663 L248.40587,33.9172269 L241.953279,33.9172269 L236.44405,52.539916 Z M214.029788,24.3441176 C212.369472,25.9894958 211.539315,28.3453782 211.539315,31.4117647 L211.539315,33.9172269 L207.42626,33.9172269 L207.42626,38.4794118 L211.539315,38.4794118 L211.539315,61.3651261 L217.576827,61.3651261 L217.576827,38.4794118 L223.048322,38.4794118 L223.048322,33.9172269 L217.576827,33.9172269 L217.576827,31.4865547 C217.576827,28.457563 219.010735,26.9617647 221.916288,26.9617647 C222.78418,26.9617647 223.576603,27.0365547 224.21809,27.1487395 L224.369027,22.32479 C223.161525,22.0256303 222.067226,21.8760505 220.972926,21.8760505 C218.029639,21.8386555 215.690104,22.6987395 214.029788,24.3441176 Z M202.181172,21.8386555 L202.181172,27.2235294 L196.14366,27.2235294 L196.14366,21.8386555 L202.181172,21.8386555 Z" id="Combined-Shape"></path>
            </g>
        </g>
    </g>
</svg>