<?xml version="1.0" encoding="UTF-8"?>
<svg width="438px" height="440px" viewBox="0 0 438 440" version="1.1" xmlns="http://www.w3.org/2000/svg" xmlns:xlink="http://www.w3.org/1999/xlink">
    <!-- Generator: Sketch 43.2 (39069) - http://www.bohemiancoding.com/sketch -->
    <title>netlify-logo-construction</title>
    <desc>Created with Sketch.</desc>
    <defs>
        <radialGradient cx="50%" cy="0%" fx="50%" fy="0%" r="100%" gradientTransform="translate(0.500000,0.000000),scale(0.988166,1.000000),translate(-0.500000,-0.000000)" id="radialGradient-1">
            <stop stop-color="#20C6B7" offset="0%"></stop>
            <stop stop-color="#4D9ABF" offset="100%"></stop>
        </radialGradient>
        <radialGradient cx="50%" cy="0%" fx="50%" fy="0%" r="100%" gradientTransform="translate(0.500000,0.000000),scale(1.000000,0.682051),translate(-0.500000,-0.000000)" id="radialGradient-2">
            <stop stop-color="#20C6B7" offset="0%"></stop>
            <stop stop-color="#4D9ABF" offset="100%"></stop>
        </radialGradient>
        <radialGradient cx="50%" cy="0%" fx="50%" fy="0%" r="100%" gradientTransform="translate(0.500000,0.000000),scale(0.425287,1.000000),translate(-0.500000,-0.000000)" id="radialGradient-3">
            <stop stop-color="#20C6B7" offset="0%"></stop>
            <stop stop-color="#4D9ABF" offset="100%"></stop>
        </radialGradient>
        <radialGradient cx="50%" cy="0%" fx="50%" fy="0%" r="100%" gradientTransform="translate(0.500000,0.000000),scale(0.202643,1.000000),translate(-0.500000,-0.000000)" id="radialGradient-4">
            <stop stop-color="#20C6B7" offset="0%"></stop>
            <stop stop-color="#4D9ABF" offset="100%"></stop>
        </radialGradient>
        <radialGradient cx="50%" cy="0%" fx="50%" fy="0%" r="100%" gradientTransform="translate(0.500000,0.000000),scale(1.000000,0.156118),translate(-0.500000,-0.000000)" id="radialGradient-5">
            <stop stop-color="#20C6B7" offset="0%"></stop>
            <stop stop-color="#4D9ABF" offset="100%"></stop>
        </radialGradient>
        <radialGradient cx="50%" cy="0%" fx="50%" fy="0%" r="100%" gradientTransform="translate(0.500000,0.000000),scale(0.426606,1.000000),translate(-0.500000,-0.000000)" id="radialGradient-6">
            <stop stop-color="#20C6B7" offset="0%"></stop>
            <stop stop-color="#4D9ABF" offset="100%"></stop>
        </radialGradient>
        <radialGradient cx="50%" cy="0%" fx="50%" fy="0%" r="100%" id="radialGradient-7">
            <stop stop-color="#20C6B7" offset="0%"></stop>
            <stop stop-color="#4D9ABF" offset="100%"></stop>
        </radialGradient>
        <radialGradient cx="50%" cy="0%" fx="50%" fy="0%" r="100%" gradientTransform="translate(0.500000,0.000000),scale(1.000000,0.634409),translate(-0.500000,-0.000000)" id="radialGradient-8">
            <stop stop-color="#20C6B7" offset="0%"></stop>
            <stop stop-color="#4D9ABF" offset="100%"></stop>
        </radialGradient>
    </defs>
    <g id="Page-1" stroke="none" stroke-width="1" fill="none" fill-rule="evenodd">
        <g id="netlify-logo-construction">
            <g id="Group" transform="translate(0.000000, 8.000000)" stroke="#00C7B7" fill="url(#radialGradient-1)" stroke-dasharray="10,5">
                <path d="M338,424 L0,90" id="Path-4-Copy"></path>
                <path d="M438,334 L100,0" id="Path-4-Copy-2"></path>
            </g>
            <g id="Group-Copy" transform="translate(221.000000, 220.000000) rotate(-270.000000) translate(-221.000000, -220.000000) translate(2.000000, 8.000000)" stroke="#00C7B7" fill="url(#radialGradient-1)" stroke-dasharray="10,5">
                <path d="M338,424 L0,90" id="Path-4-Copy"></path>
                <path d="M438,334 L100,0" id="Path-4-Copy-2"></path>
            </g>
            <path d="M248,330 L115,135" id="Path-2" stroke="#BCBCBC" fill="url(#radialGradient-2)" stroke-dasharray="10,5"></path>
            <path d="M112,138 L373,249" id="Path-3" stroke="#BCBCBC" fill="url(#radialGradient-3)" stroke-dasharray="10,5"></path>
            <path d="M321,262 L94,216" id="Path-4" stroke="#BCBCBC" fill="url(#radialGradient-4)" stroke-dasharray="10,5"></path>
            <path d="M265,137 L228,374" id="Path-5" stroke="#BCBCBC" fill="url(#radialGradient-5)" stroke-dasharray="10,5"></path>
            <path d="M124,257 L342,164" id="Path-6" stroke="#BCBCBC" fill="url(#radialGradient-6)" stroke-dasharray="10,5"></path>
            <path d="" id="Path-7" stroke="#BCBCBC" fill="url(#radialGradient-7)" stroke-dasharray="10,5"></path>
            <path d="M153,278 L271,92" id="Path-8" stroke="#BCBCBC" fill="url(#radialGradient-8)" stroke-dasharray="10,5"></path>
            <path d="M259.578927,192.537957 C260.55267,193.020062 261.364124,193.662867 262.013285,194.386023 C262.094431,194.466374 262.094431,194.466374 262.175576,194.466374 L262.256722,194.466374 L280.920137,186.511655 C281.001281,186.431304 281.082427,186.350954 281.082427,186.270603 C281.082427,186.190252 281.082427,186.109902 281.001281,186.029551 L263.555046,168.754151 C263.4739,168.6738 263.392756,168.6738 263.392756,168.6738 L263.31161,168.6738 C263.230464,168.6738 263.14932,168.754151 263.14932,168.914852 L259.335491,192.296905 C259.416636,192.377256 259.497782,192.537957 259.578927,192.537957 Z M220.872626,176.869571 C221.765224,178.235533 222.333241,179.842547 222.495532,181.449561 C222.495532,181.529912 222.576677,181.610263 222.657822,181.690613 L250.40951,193.502166 L250.490655,193.502166 C250.5718,193.502166 250.652945,193.502166 250.652945,193.421815 C251.464398,192.779009 252.438142,192.296905 253.49303,191.975503 C253.574176,191.975503 253.655321,191.895152 253.655321,191.73445 L258.199457,163.531356 C258.199457,163.451005 258.199457,163.370654 258.118312,163.290304 L240.753221,146.014904 C240.672075,145.934553 240.672075,145.934553 240.59093,145.934553 C240.509785,145.934553 240.42864,146.014904 240.42864,146.095255 L220.872626,176.467818 C220.791481,176.628519 220.791481,176.789221 220.872626,176.869571 Z M315.650319,220.339299 L285.869999,190.770242 C285.788853,190.689891 285.707709,190.689891 285.707709,190.689891 L285.626563,190.689891 L265.421387,199.287416 C265.340242,199.367767 265.259096,199.448117 265.259096,199.528468 C265.259096,199.608819 265.340242,199.76952 265.421387,199.76952 L315.244593,220.901753 L315.325737,220.901753 C315.406883,220.901753 315.488028,220.901753 315.488028,220.821403 L315.650319,220.660701 C315.81261,220.660701 315.81261,220.419649 315.650319,220.339299 Z M310.700457,225.16034 L262.905883,204.911965 L262.824739,204.911965 C262.743593,204.911965 262.662448,204.911965 262.581302,204.992315 C261.282978,206.760031 259.335491,207.884941 257.063423,208.206343 C256.982278,208.206343 256.819987,208.286694 256.819987,208.447395 L251.707834,239.864518 C251.707834,239.944869 251.707834,240.025219 251.788979,240.10557 C253.574176,241.471532 254.629064,243.480299 254.8725,245.730119 C254.8725,245.89082 254.953646,245.971171 255.115936,245.971171 L284.003657,251.997473 L284.084803,251.997473 C284.165948,251.997473 284.247094,251.997473 284.247094,251.917123 L310.700457,225.642445 C310.781601,225.562094 310.781601,225.481743 310.781601,225.401393 C310.781601,225.321042 310.781601,225.240691 310.700457,225.16034 Z M247.407134,198.323208 L221.278352,187.234811 L221.197207,187.234811 C221.116062,187.234811 221.034917,187.315162 220.953771,187.395513 C219.168575,190.127436 216.166199,191.73445 212.920388,191.73445 C212.433516,191.73445 211.946645,191.6541 211.378628,191.573749 L211.297482,191.573749 C211.216337,191.573749 211.135192,191.6541 211.054046,191.73445 L189.550546,225.07999 C189.469401,225.16034 189.469401,225.321042 189.550546,225.401393 C189.631691,225.481743 189.712837,225.481743 189.793982,225.481743 L189.875127,225.481743 L247.244844,200.974781 C247.325989,200.89443 247.407134,200.814079 247.407134,200.733729 L247.407134,200.412326 L247.407134,200.010572 C247.407134,199.528468 247.488279,199.046364 247.569425,198.64461 C247.569425,198.483909 247.488279,198.403558 247.407134,198.323208 Z M278.891505,256.657814 L253.49303,251.435018 L253.411885,251.435018 C253.33074,251.435018 253.249595,251.515369 253.168449,251.515369 C252.194706,252.720629 250.977527,253.684838 249.516912,254.247293 C249.435766,254.247293 249.354621,254.407994 249.354621,254.488345 L243.268725,291.931769 C243.268725,292.09247 243.34987,292.172822 243.431015,292.253173 L243.593306,292.253173 C243.674451,292.253173 243.755596,292.253173 243.755596,292.172822 L278.972651,257.220269 C279.053795,257.139918 279.053795,257.059567 279.053795,256.979216 C279.053795,256.738164 278.972651,256.657814 278.891505,256.657814 Z M243.431015,254.086591 C240.996657,253.122383 239.21146,250.952914 238.562298,248.462043 C238.562298,248.381692 238.481153,248.301341 238.318862,248.220991 L191.254597,238.498556 C191.254597,238.498556 191.254597,238.498556 191.173452,238.498556 C191.092306,238.498556 191.011161,238.578907 190.930016,238.659258 C190.68658,239.061011 190.524289,239.382414 190.280854,239.703817 C190.199708,239.784167 190.199708,239.944869 190.280854,240.025219 L233.125564,302.055957 C233.206709,302.136308 233.206709,302.136308 233.287855,302.136308 C233.369,302.136308 233.450145,302.136308 233.450145,302.055957 L236.046794,299.484736 C236.046794,299.404385 236.127939,299.404385 236.127939,299.324034 L243.431015,254.327643 C243.593306,254.327643 243.593306,254.166942 243.431015,254.086591 Z M192.22834,232.793657 C192.22834,232.954358 192.309486,233.034709 192.471776,233.034709 L239.130315,242.676792 L239.21146,242.676792 C239.292606,242.676792 239.373751,242.596442 239.454896,242.516091 C240.834366,240.10557 243.268725,238.498556 246.027664,238.337855 C246.189955,238.337855 246.2711,238.257504 246.2711,238.096803 L251.302108,207.161784 C251.302108,207.081434 251.302108,206.920732 251.139817,206.920732 C250.815236,206.67968 250.490655,206.438628 250.084929,206.036875 C250.003783,205.956524 249.922638,205.956524 249.922638,205.956524 L249.841493,205.956524 L192.147195,230.624188 C191.984904,230.704539 191.984904,230.784889 191.984904,230.945591 C192.06605,231.588396 192.22834,232.150851 192.22834,232.793657 Z M172.672327,240.587674 C172.428891,240.266271 172.185455,239.944869 171.942019,239.543115 C171.860874,239.462764 171.779729,239.382414 171.698583,239.382414 L171.617438,239.382414 L151.493407,247.979938 C151.412262,247.979938 151.331117,248.060289 151.331117,248.14064 C151.331117,248.220991 151.331117,248.301341 151.412262,248.381692 L161.230842,258.104126 C161.311987,258.184477 161.393132,258.184477 161.393132,258.184477 C161.474277,258.184477 161.555423,258.104126 161.636568,258.023775 L172.753472,240.748376 C172.753472,240.748376 172.753472,240.668025 172.672327,240.587674 Z M185.980153,243.721351 C185.899008,243.641001 185.817863,243.56065 185.736718,243.56065 L185.655572,243.56065 C184.194957,244.203456 182.734342,244.524858 181.192582,244.524858 C179.975402,244.524858 178.839368,244.364157 177.622189,243.962404 L177.541044,243.962404 C177.459898,243.962404 177.378753,244.042754 177.297608,244.123105 L165.612687,262.282363 L165.531542,262.362714 C165.450396,262.443064 165.450396,262.603765 165.531542,262.684116 L219.24972,315.956628 C219.330866,316.036979 219.412011,316.036979 219.412011,316.036979 C219.493156,316.036979 219.574301,316.036979 219.574301,315.956628 L228.987154,306.555597 C229.0683,306.475246 229.0683,306.314545 228.987154,306.234193 L185.980153,243.721351 Z M178.433642,222.74982 C178.514787,222.83017 178.595932,222.910521 178.677078,222.910521 L178.758223,222.910521 C179.569676,222.74982 180.462274,222.589118 181.273727,222.589118 C182.166325,222.589118 183.140069,222.74982 184.032667,222.990872 L184.113812,222.990872 C184.194957,222.990872 184.276103,222.910521 184.357248,222.83017 L206.104184,189.082877 C206.185329,189.002527 206.185329,188.841825 206.104184,188.761475 C204.400133,186.993759 203.42639,184.663589 203.42639,182.172717 C203.42639,181.449561 203.507535,180.726405 203.669826,180.003249 C203.669826,179.842547 203.58868,179.762197 203.507535,179.681846 C200.748595,178.476585 176.323865,168.191696 176.323865,168.111346 L176.242719,168.111346 C176.161574,168.111346 176.080429,168.111346 176.080429,168.191696 L155.388381,188.761475 C155.307236,188.841825 155.307236,189.002527 155.388381,189.082877 L178.433642,222.74982 Z M180.786855,163.933109 C180.786855,163.933109 205.455022,174.3787 206.50991,174.860804 L206.591056,174.860804 C206.672201,174.860804 206.672201,174.860804 206.753346,174.780453 C208.457397,173.414492 210.64832,172.610985 212.839243,172.610985 C213.894132,172.610985 214.94902,172.771686 216.003909,173.093089 L216.085054,173.093089 C216.166199,173.093089 216.247345,173.012738 216.32849,172.932387 L236.371375,141.836668 C236.452521,141.756317 236.452521,141.595616 236.371375,141.515265 L219.736592,125.043372 C219.655447,124.963021 219.655447,124.963021 219.574301,124.963021 C219.493156,124.963021 219.412011,124.963021 219.412011,125.043372 L180.786855,163.451005 C180.70571,163.531356 180.70571,163.611706 180.70571,163.692057 C180.624565,163.852759 180.70571,163.852759 180.786855,163.933109 Z M171.211712,228.61542 C171.292857,228.61542 171.374002,228.53507 171.455147,228.454719 C171.942019,227.490511 172.672327,226.606653 173.402634,225.803146 C173.48378,225.722795 173.48378,225.562094 173.402634,225.481743 C173.159198,225.16034 151.168826,193.341464 151.168826,193.261114 C151.087681,193.180763 151.087681,193.180763 150.92539,193.100412 C150.844245,193.100412 150.7631,193.100412 150.7631,193.180763 L125.12119,218.571583 C125.040045,218.651934 125.040045,218.732285 125.040045,218.812635 C125.040045,218.892986 125.12119,218.973337 125.28348,218.973337 L171.211712,228.61542 C171.130566,228.61542 171.130566,228.61542 171.211712,228.61542 Z M169.101934,234.159618 C169.101934,233.998917 169.020789,233.918566 168.858498,233.918566 L129.016163,225.642445 C129.016163,225.642445 129.016163,225.642445 128.935018,225.642445 C128.853873,225.642445 128.772728,225.722795 128.691582,225.803146 C128.610437,225.883497 128.691582,226.044198 128.772728,226.124549 L146.543545,243.801702 C146.62469,243.882053 146.705836,243.882053 146.705836,243.882053 L146.786981,243.882053 L168.858498,234.481021 C169.020789,234.32032 169.101934,234.239969 169.101934,234.159618 Z" id="Combined-Shape" fill="#313D3E" fill-rule="nonzero"></path>
        </g>
    </g>
</svg>