<?xml version="1.0" encoding="UTF-8"?>
<svg width="144px" height="51px" viewBox="0 0 144 51" version="1.1" xmlns="http://www.w3.org/2000/svg" xmlns:xlink="http://www.w3.org/1999/xlink">
    <!-- Generator: Sketch 43.2 (39069) - http://www.bohemiancoding.com/sketch -->
    <title>netlify-logotype-black</title>
    <desc>Created with Sketch.</desc>
    <defs></defs>
    <g id="Page-1" stroke="none" stroke-width="1" fill="none" fill-rule="evenodd">
        <g id="netlify-logotype-black" fill-rule="nonzero" fill="#000000">
            <g id="Combined-Shape">
                <path d="M75.4688953,0.56092428 L81.5064071,0.56092428 L81.5064071,39.5264706 L75.4688953,39.5264706 L75.4688953,0.56092428 Z M13.6976046,11.5550419 C10.4524421,11.5550419 7.84876516,12.7890756 5.84883955,15.2197479 L5.66016721,12.0411764 L0,12.0411764 L0,39.4890756 L6.03751174,39.4890756 L6.03751174,19.9689075 C7.24501412,17.72521 9.05626754,16.6033613 11.4712722,16.6033613 C13.1315878,16.6033613 14.3390902,17.0147058 15.0937791,17.8747898 C15.8484682,18.697479 16.1880783,20.0063024 16.1880783,21.7264706 L16.1880783,39.4890756 L22.2255899,39.4890756 L22.2255899,21.352521 C22.1501209,14.8457982 19.3200373,11.5550419 13.6976046,11.5550419 Z M39.7721081,11.5550419 C37.4703067,11.5550419 35.3949122,12.1533613 33.5081898,13.35 C31.6214673,14.5466387 30.1875583,16.2294117 29.1309938,18.3983193 C28.1121637,20.5672269 27.5838815,22.9978992 27.5838815,25.7277311 L27.5838815,26.4756303 C27.5838815,30.5516806 28.7913837,33.8424369 31.168654,36.3105042 C33.5459241,38.7785714 36.6401489,40.012605 40.4890627,40.012605 C42.7153951,40.012605 44.7530556,39.5638655 46.5643083,38.6663866 C48.3755624,37.7689075 49.8094719,36.497479 50.8660353,34.8521008 L47.6208731,31.6735294 C45.8850882,33.9546218 43.6210216,35.1138655 40.866407,35.1138655 C38.9042158,35.1138655 37.2439001,34.4407563 35.9609289,33.1319327 C34.6402233,31.8231092 33.9232687,30.0281513 33.7345965,27.7470587 L51.3188492,27.7470587 L51.3188492,25.2789916 C51.3188492,20.9037816 50.3000197,17.5382353 48.3378271,15.1449579 C46.2624328,12.7516806 43.4323492,11.5550419 39.7721081,11.5550419 Z M45.2813373,23.2222689 L33.7723309,23.2222689 C34.0364721,21.0907563 34.715692,19.4453782 35.7345222,18.2861345 C36.7533523,17.0894958 38.1117924,16.5285714 39.7721081,16.5285714 C41.4324238,16.5285714 42.7531296,17.0521008 43.6964908,18.0991596 C44.6398525,19.1462185 45.1681342,20.7168066 45.3190726,22.7735294 L45.3190726,23.2222689 L45.2813373,23.2222689 Z M64.9032502,34.2163866 C64.4881716,33.7676471 64.2994993,32.9823529 64.2994993,31.935294 L64.2994993,16.6033613 L69.0540402,16.6033613 L69.0540402,12.0411764 L64.2994993,12.0411764 L64.2994993,5.38487395 L58.2619874,5.38487395 L58.2619874,12.0411764 L53.8470573,12.0411764 L53.8470573,16.6033613 L58.2619874,16.6033613 L58.2619874,32.1596638 C58.2619874,37.3949579 60.6015232,40.012605 65.242861,40.012605 C66.525832,40.012605 67.8465369,39.8256303 69.2427125,39.4142856 L69.2427125,34.6277311 C68.525757,34.8147058 67.808803,34.8894958 67.1295829,34.8894958 C66.0352842,34.9268908 65.3183287,34.702521 64.9032502,34.2163866 Z M90.8645504,12.0785714 L96.9020623,12.0785714 L96.9020623,39.5264706 L90.8645504,39.5264706 L90.8645504,12.0785714 Z M131.164941,30.7012605 L125.467038,12.0785714 L118.93898,12.0785714 L128.410327,39.3768908 L127.542434,41.7327731 C127.08962,43.0789916 126.485869,44.0138655 125.693446,44.5747898 C124.938757,45.1357142 123.768989,45.4348739 122.259612,45.4348739 L121.127578,45.360084 L121.127578,50.1466387 C122.184142,50.4457982 123.165238,50.5953782 124.03313,50.5953782 C127.957513,50.5953782 130.749863,48.2768908 132.410178,43.6773108 L143.12676,12.0785714 L136.67417,12.0785714 L131.164941,30.7012605 Z M108.750678,2.50546214 C107.090363,4.1508403 106.260206,6.50672266 106.260206,9.57310923 L106.260206,12.0785714 L102.147151,12.0785714 L102.147151,16.6407563 L106.260206,16.6407563 L106.260206,39.5264706 L112.297718,39.5264706 L112.297718,16.6407563 L117.769212,16.6407563 L117.769212,12.0785714 L112.297718,12.0785714 L112.297718,9.64789919 C112.297718,6.61890745 113.731626,5.12310923 116.637178,5.12310923 C117.505071,5.12310923 118.297494,5.19789919 118.93898,5.31008399 L119.089917,0.486134465 C117.882415,0.18697476 116.788117,0.0373949817 115.693817,0.0373949817 C112.75053,8.67361738e-16 110.410994,0.860083985 108.750678,2.50546214 Z M96.9020623,0 L96.9020623,5.38487395 L90.8645504,5.38487395 L90.8645504,0 L96.9020623,0 Z"></path>
            </g>
        </g>
    </g>
</svg>