<?xml version="1.0" encoding="UTF-8"?>
<svg width="144px" height="172px" viewBox="0 0 144 172" version="1.1" xmlns="http://www.w3.org/2000/svg" xmlns:xlink="http://www.w3.org/1999/xlink">
    <!-- Generator: Sketch 43.2 (39069) - http://www.bohemiancoding.com/sketch -->
    <title>netlify-logo-vertical-black-white</title>
    <desc>Created with Sketch.</desc>
    <defs></defs>
    <g id="Page-1" stroke="none" stroke-width="1" fill="none" fill-rule="evenodd">
        <g id="netlify-logo-vertical-black-white" fill-rule="nonzero" fill="#000000">
            <g id="bitbrew-logo-vertical-black-white">
                <path d="M92.9325381,37.1341463 C93.4676349,37.3990749 93.9135492,37.7523128 94.27028,38.1497056 C94.3148718,38.1938604 94.3148718,38.1938604 94.3594627,38.1938604 L94.4040545,38.1938604 L104.660076,33.82254 C104.704667,33.7783852 104.749259,33.7342304 104.749259,33.6900757 C104.749259,33.6459209 104.749259,33.6017662 104.704667,33.5576114 L95.1175169,24.0643398 C95.0729252,24.020185 95.0283342,24.020185 95.0283342,24.020185 L94.9837425,24.020185 C94.9391507,24.020185 94.8945598,24.0643398 94.8945598,24.1526493 L92.7987639,37.0016821 C92.8433553,37.0458368 92.8879468,37.1341463 92.9325381,37.1341463 Z M71.6624412,28.5239697 C72.1529466,29.2746005 72.4650864,30.1576955 72.5542691,31.0407906 C72.5542691,31.0849454 72.5988606,31.1291001 72.643452,31.1732549 L87.8937101,37.6640033 L87.9383015,37.6640033 C87.9828929,37.6640033 88.0274843,37.6640033 88.0274843,37.6198486 C88.4733983,37.2666106 89.0084951,37.0016821 89.5881833,36.8250631 C89.6327747,36.8250631 89.677366,36.7809083 89.677366,36.6925988 L92.1744843,21.1942809 C92.1744843,21.1501262 92.1744843,21.1059714 92.129893,21.0618167 L82.5873338,11.568545 C82.5427423,11.5243903 82.5427423,11.5243903 82.498151,11.5243903 C82.4535596,11.5243903 82.4089682,11.568545 82.4089682,11.6126997 L71.6624412,28.303196 C71.6178498,28.3915055 71.6178498,28.479815 71.6624412,28.5239697 Z M123.745195,52.4116905 L107.380151,36.1627418 C107.335559,36.1185871 107.290968,36.1185871 107.290968,36.1185871 L107.246377,36.1185871 L96.1431185,40.8431455 C96.0985275,40.8873003 96.0539357,40.931455 96.0539357,40.9756097 C96.0539357,41.0197645 96.0985275,41.108074 96.1431185,41.108074 L123.522237,52.7207737 L123.566828,52.7207737 C123.61142,52.7207737 123.656011,52.7207737 123.656011,52.676619 L123.745195,52.5883095 C123.834377,52.5883095 123.834377,52.4558453 123.745195,52.4116905 Z M121.025119,55.0609756 L94.7607853,43.9339781 L94.7161943,43.9339781 C94.6716026,43.9339781 94.6270116,43.9339781 94.5824199,43.9781329 C93.8689575,44.9495374 92.7987639,45.567704 91.5502048,45.744323 C91.5056134,45.744323 91.4164306,45.7884777 91.4164306,45.8767872 L88.6071725,63.1412952 C88.6071725,63.18545 88.6071725,63.2296047 88.6517639,63.2737595 C89.6327747,64.0243903 90.2124628,65.128259 90.346237,66.3645921 C90.346237,66.4529016 90.3908284,66.4970564 90.4800113,66.4970564 L106.354549,69.8086627 L106.399141,69.8086627 C106.443732,69.8086627 106.488323,69.8086627 106.488323,69.764508 L121.025119,55.3259041 C121.06971,55.2817494 121.06971,55.2375946 121.06971,55.1934399 C121.06971,55.1492851 121.06971,55.1051304 121.025119,55.0609756 Z M86.2438284,40.3132885 L71.8853982,34.2199327 L71.8408068,34.2199327 C71.7962154,34.2199327 71.751624,34.2640874 71.7070326,34.3082422 C70.7260219,35.8095038 69.0761401,36.6925988 67.2924842,36.6925988 C67.0249358,36.6925988 66.7573874,36.6484441 66.4452476,36.6042894 L66.4006562,36.6042894 C66.3560649,36.6042894 66.3114734,36.6484441 66.266882,36.6925988 L54.4501615,55.0168209 C54.4055701,55.0609756 54.4055701,55.1492851 54.4501615,55.1934399 C54.494753,55.2375946 54.5393443,55.2375946 54.5839357,55.2375946 L54.6285271,55.2375946 L86.1546456,41.7703953 C86.199237,41.7262405 86.2438284,41.6820858 86.2438284,41.637931 L86.2438284,41.461312 L86.2438284,41.2405383 C86.2438284,40.9756097 86.2884198,40.7106813 86.3330112,40.4899075 C86.3330112,40.401598 86.2884198,40.3574432 86.2438284,40.3132885 Z M103.545291,72.3696383 L89.5881833,69.4995795 L89.5435919,69.4995795 C89.4990005,69.4995795 89.454409,69.5437342 89.4098177,69.5437342 C88.8747209,70.2060555 88.2058499,70.7359126 87.4032048,71.0449958 C87.3586133,71.0449958 87.314022,71.1333053 87.314022,71.17746 L83.9696671,91.7535742 C83.9696671,91.8418836 84.0142585,91.886039 84.0588499,91.9301938 L84.1480327,91.9301938 C84.1926241,91.9301938 84.2372155,91.9301938 84.2372155,91.886039 L103.589883,72.6787216 C103.634474,72.6345669 103.634474,72.5904121 103.634474,72.5462573 C103.634474,72.4137931 103.589883,72.3696383 103.545291,72.3696383 Z M84.0588499,70.9566863 C82.721108,70.4268292 81.7400972,69.234651 81.383366,67.8658537 C81.383366,67.8216989 81.3387746,67.7775441 81.2495918,67.7333894 L55.3865809,62.3906644 C55.3865809,62.3906644 55.3865809,62.3906644 55.3419895,62.3906644 C55.2973981,62.3906644 55.2528067,62.4348192 55.2082153,62.478974 C55.0744411,62.6997477 54.9852583,62.8763667 54.8514841,63.0529857 C54.8068927,63.0971405 54.8068927,63.18545 54.8514841,63.2296047 L78.3957423,97.3170731 C78.4403337,97.3612278 78.4403337,97.3612278 78.4849251,97.3612278 C78.5295166,97.3612278 78.5741079,97.3612278 78.5741079,97.3170731 L80.0010326,95.9041214 C80.0010326,95.8599667 80.0456241,95.8599667 80.0456241,95.8158119 L84.0588499,71.0891505 C84.1480327,71.0891505 84.1480327,71.000841 84.0588499,70.9566863 Z M55.9216777,59.255677 C55.9216777,59.3439865 55.9662691,59.3881413 56.0554519,59.3881413 L81.6955058,64.6867115 L81.7400972,64.6867115 C81.7846886,64.6867115 81.82928,64.6425568 81.8738714,64.598402 C82.6319251,63.2737595 83.9696671,62.3906644 85.4857746,62.3023549 C85.5749574,62.3023549 85.6195488,62.2582001 85.6195488,62.1698906 L88.3842155,45.1703112 C88.3842155,45.1261564 88.3842155,45.0378469 88.2950327,45.0378469 C88.1166671,44.9053827 87.9383015,44.7729185 87.7153445,44.5521446 C87.6707531,44.5079899 87.6261618,44.5079899 87.6261618,44.5079899 L87.5815703,44.5079899 L55.8770862,58.0634987 C55.7879034,58.1076535 55.7879034,58.1518082 55.7879034,58.2401177 C55.8324949,58.5933558 55.9216777,58.902439 55.9216777,59.255677 Z M45.1751507,63.538688 C45.0413765,63.362069 44.9076023,63.18545 44.7738281,62.9646762 C44.7292368,62.9205214 44.6846453,62.8763667 44.640054,62.8763667 L44.5954625,62.8763667 L33.5367958,67.6009251 C33.4922044,67.6009251 33.447613,67.6450799 33.447613,67.6892346 C33.447613,67.7333894 33.447613,67.7775441 33.4922044,67.8216989 L38.8877635,73.1644239 C38.932355,73.2085786 38.9769464,73.2085786 38.9769464,73.2085786 C39.0215378,73.2085786 39.0661292,73.1644239 39.1107205,73.1202691 L45.2197421,63.6269974 C45.2197421,63.6269974 45.2197421,63.5828427 45.1751507,63.538688 Z M52.48814,65.2607233 C52.4435486,65.2165686 52.3989572,65.1724138 52.3543658,65.1724138 L52.3097744,65.1724138 C51.5071292,65.5256518 50.7044841,65.7022708 49.8572475,65.7022708 C49.1883765,65.7022708 48.564097,65.6139613 47.895226,65.3931876 L47.8506346,65.3931876 C47.8060432,65.3931876 47.7614518,65.4373423 47.7168604,65.4814971 L41.295699,75.4604713 L41.2511077,75.504626 C41.2065163,75.5487807 41.2065163,75.6370901 41.2511077,75.6812449 L70.7706132,104.955845 C70.8152046,105 70.8597961,105 70.8597961,105 C70.9043874,105 70.9489789,105 70.9489789,104.955845 L76.121581,99.7897395 C76.1661724,99.7455848 76.1661724,99.6572754 76.121581,99.6131199 L52.48814,65.2607233 Z M48.34114,53.7363331 C48.3857314,53.7804878 48.4303227,53.8246426 48.4749142,53.8246426 L48.5195056,53.8246426 C48.9654195,53.7363331 49.455925,53.6480236 49.9018389,53.6480236 C50.3923443,53.6480236 50.9274411,53.7363331 51.4179465,53.8687973 L51.4625379,53.8687973 C51.5071292,53.8687973 51.5517207,53.8246426 51.596312,53.7804878 L63.5468067,35.235492 C63.5913982,35.1913373 63.5913982,35.1030277 63.5468067,35.058873 C62.6103874,34.0874685 62.0752906,32.8069806 62.0752906,31.4381833 C62.0752906,31.0407906 62.119882,30.6433978 62.2090648,30.246005 C62.2090648,30.1576955 62.1644734,30.1135408 62.119882,30.069386 C60.6037744,29.4070647 47.1817636,23.7552565 47.1817636,23.7111018 L47.1371722,23.7111018 C47.0925808,23.7111018 47.0479895,23.7111018 47.0479895,23.7552565 L35.6771829,35.058873 C35.6325915,35.1030277 35.6325915,35.1913373 35.6771829,35.235492 L48.34114,53.7363331 Z M49.6342905,21.4150546 C49.6342905,21.4150546 63.1900756,27.1551724 63.7697637,27.4201009 L63.8143552,27.4201009 C63.8589465,27.4201009 63.8589465,27.4201009 63.9035379,27.3759462 C64.8399573,26.6253154 66.0439251,26.1837678 67.2478928,26.1837678 C67.827581,26.1837678 68.4072691,26.2720774 68.9869573,26.4486964 L69.0315487,26.4486964 C69.0761401,26.4486964 69.1207315,26.4045417 69.1653229,26.3603869 L80.1793983,9.27249787 C80.2239896,9.22834315 80.2239896,9.14003364 80.1793983,9.09587892 L71.0381616,0.0441547519 C70.9935702,0 70.9935702,0 70.9489789,0 C70.9043874,0 70.8597961,0 70.8597961,0.0441547519 L49.6342905,21.1501262 C49.5896991,21.1942809 49.5896991,21.2384356 49.5896991,21.2825904 C49.5451077,21.3708999 49.5896991,21.3708999 49.6342905,21.4150546 Z M44.3725055,56.95963 C44.417097,56.95963 44.4616883,56.9154752 44.5062798,56.8713204 C44.7738281,56.3414635 45.1751507,55.8557612 45.5764733,55.4142136 C45.6210647,55.3700589 45.6210647,55.2817494 45.5764733,55.2375946 C45.4426991,55.0609756 33.3584302,37.5756938 33.3584302,37.5315391 C33.3138388,37.4873844 33.3138388,37.4873844 33.224656,37.4432296 C33.1800646,37.4432296 33.1354732,37.4432296 33.1354732,37.4873844 L19.0445914,51.4402859 C19,51.4844407 19,51.5285955 19,51.5727502 C19,51.616905 19.0445914,51.6610597 19.1337742,51.6610597 L44.3725055,56.95963 C44.3279142,56.95963 44.3279142,56.95963 44.3725055,56.95963 Z M43.2131292,60.0063078 C43.2131292,59.9179983 43.1685378,59.8738436 43.079355,59.8738436 L21.1849785,55.3259041 C21.1849785,55.3259041 21.1849785,55.3259041 21.1403871,55.3259041 C21.0957957,55.3259041 21.0512043,55.3700589 21.0066129,55.4142136 C20.9620215,55.4583683 21.0066129,55.5466779 21.0512043,55.5908326 L30.8167205,65.3048781 C30.8613119,65.3490328 30.9059033,65.3490328 30.9059033,65.3490328 L30.9504947,65.3490328 L43.079355,60.1829268 C43.1685378,60.0946173 43.2131292,60.0504626 43.2131292,60.0063078 Z" id="Combined-Shape"></path>
                <path d="M75.4688953,121.560924 L81.5064071,121.560924 L81.5064071,160.526471 L75.4688953,160.526471 L75.4688953,121.560924 Z M13.6976046,132.555042 C10.4524421,132.555042 7.84876516,133.789076 5.84883955,136.219748 L5.66016721,133.041176 L0,133.041176 L0,160.489076 L6.03751174,160.489076 L6.03751174,140.968907 C7.24501412,138.72521 9.05626754,137.603361 11.4712722,137.603361 C13.1315878,137.603361 14.3390902,138.014706 15.0937791,138.87479 C15.8484682,139.697479 16.1880783,141.006302 16.1880783,142.726471 L16.1880783,160.489076 L22.2255899,160.489076 L22.2255899,142.352521 C22.1501209,135.845798 19.3200373,132.555042 13.6976046,132.555042 Z M39.7721081,132.555042 C37.4703067,132.555042 35.3949122,133.153361 33.5081898,134.35 C31.6214673,135.546639 30.1875583,137.229412 29.1309938,139.398319 C28.1121637,141.567227 27.5838815,143.997899 27.5838815,146.727731 L27.5838815,147.47563 C27.5838815,151.551681 28.7913837,154.842437 31.168654,157.310504 C33.5459241,159.778571 36.6401489,161.012605 40.4890627,161.012605 C42.7153951,161.012605 44.7530556,160.563866 46.5643083,159.666387 C48.3755624,158.768907 49.8094719,157.497479 50.8660353,155.852101 L47.6208731,152.673529 C45.8850882,154.954622 43.6210216,156.113866 40.866407,156.113866 C38.9042158,156.113866 37.2439001,155.440756 35.9609289,154.131933 C34.6402233,152.823109 33.9232687,151.028151 33.7345965,148.747059 L51.3188492,148.747059 L51.3188492,146.278992 C51.3188492,141.903782 50.3000197,138.538235 48.3378271,136.144958 C46.2624328,133.751681 43.4323492,132.555042 39.7721081,132.555042 Z M45.2813373,144.222269 L33.7723309,144.222269 C34.0364721,142.090756 34.715692,140.445378 35.7345222,139.286134 C36.7533523,138.089496 38.1117924,137.528571 39.7721081,137.528571 C41.4324238,137.528571 42.7531296,138.052101 43.6964908,139.09916 C44.6398525,140.146218 45.1681342,141.716807 45.3190726,143.773529 L45.3190726,144.222269 L45.2813373,144.222269 Z M64.9032502,155.216387 C64.4881716,154.767647 64.2994993,153.982353 64.2994993,152.935294 L64.2994993,137.603361 L69.0540402,137.603361 L69.0540402,133.041176 L64.2994993,133.041176 L64.2994993,126.384874 L58.2619874,126.384874 L58.2619874,133.041176 L53.8470573,133.041176 L53.8470573,137.603361 L58.2619874,137.603361 L58.2619874,153.159664 C58.2619874,158.394958 60.6015232,161.012605 65.242861,161.012605 C66.525832,161.012605 67.8465369,160.82563 69.2427125,160.414286 L69.2427125,155.627731 C68.525757,155.814706 67.808803,155.889496 67.1295829,155.889496 C66.0352842,155.926891 65.3183287,155.702521 64.9032502,155.216387 Z M90.8645504,133.078571 L96.9020623,133.078571 L96.9020623,160.526471 L90.8645504,160.526471 L90.8645504,133.078571 Z M131.164941,151.701261 L125.467038,133.078571 L118.93898,133.078571 L128.410327,160.376891 L127.542434,162.732773 C127.08962,164.078992 126.485869,165.013866 125.693446,165.57479 C124.938757,166.135714 123.768989,166.434874 122.259612,166.434874 L121.127578,166.360084 L121.127578,171.146639 C122.184142,171.445798 123.165238,171.595378 124.03313,171.595378 C127.957513,171.595378 130.749863,169.276891 132.410178,164.677311 L143.12676,133.078571 L136.67417,133.078571 L131.164941,151.701261 Z M108.750678,123.505462 C107.090363,125.15084 106.260206,127.506723 106.260206,130.573109 L106.260206,133.078571 L102.147151,133.078571 L102.147151,137.640756 L106.260206,137.640756 L106.260206,160.526471 L112.297718,160.526471 L112.297718,137.640756 L117.769212,137.640756 L117.769212,133.078571 L112.297718,133.078571 L112.297718,130.647899 C112.297718,127.618907 113.731626,126.123109 116.637178,126.123109 C117.505071,126.123109 118.297494,126.197899 118.93898,126.310084 L119.089917,121.486134 C117.882415,121.186975 116.788117,121.037395 115.693817,121.037395 C112.75053,121 110.410994,121.860084 108.750678,123.505462 Z M96.9020623,121 L96.9020623,126.384874 L90.8645504,126.384874 L90.8645504,121 L96.9020623,121 Z" id="Combined-Shape"></path>
            </g>
        </g>
    </g>
</svg>