<?xml version="1.0" encoding="UTF-8"?>
<svg width="144px" height="172px" viewBox="0 0 144 172" version="1.1" xmlns="http://www.w3.org/2000/svg" xmlns:xlink="http://www.w3.org/1999/xlink">
    <!-- Generator: Sketch 43.2 (39069) - http://www.bohemiancoding.com/sketch -->
    <title>netlify-logo-vertical-black</title>
    <desc>Created with Sketch.</desc>
    <defs></defs>
    <g id="Page-1" stroke="none" stroke-width="1" fill="none" fill-rule="evenodd">
        <g id="netlify-logo-vertical-black" fill-rule="nonzero" fill="#000000">
            <g id="bitbrew-logo-vertical-black" transform="translate(19.000000, 0.000000)">
                <path d="M73.9325381,37.1341463 C74.4676349,37.3990749 74.9135492,37.7523128 75.27028,38.1497056 C75.3148718,38.1938604 75.3148718,38.1938604 75.3594627,38.1938604 L75.4040545,38.1938604 L85.6600759,33.82254 C85.7046669,33.7783852 85.7492586,33.7342304 85.7492586,33.6900757 C85.7492586,33.6459209 85.7492586,33.6017662 85.7046669,33.5576114 L76.1175169,24.0643398 C76.0729252,24.020185 76.0283342,24.020185 76.0283342,24.020185 L75.9837425,24.020185 C75.9391507,24.020185 75.8945598,24.0643398 75.8945598,24.1526493 L73.7987639,37.0016821 C73.8433553,37.0458368 73.8879468,37.1341463 73.9325381,37.1341463 Z M52.6624412,28.5239697 C53.1529466,29.2746005 53.4650864,30.1576955 53.5542691,31.0407906 C53.5542691,31.0849454 53.5988606,31.1291001 53.643452,31.1732549 L68.8937101,37.6640033 L68.9383015,37.6640033 C68.9828929,37.6640033 69.0274843,37.6640033 69.0274843,37.6198486 C69.4733983,37.2666106 70.0084951,37.0016821 70.5881833,36.8250631 C70.6327747,36.8250631 70.677366,36.7809083 70.677366,36.6925988 L73.1744843,21.1942809 C73.1744843,21.1501262 73.1744843,21.1059714 73.129893,21.0618167 L63.5873338,11.568545 C63.5427423,11.5243903 63.5427423,11.5243903 63.498151,11.5243903 C63.4535596,11.5243903 63.4089682,11.568545 63.4089682,11.6126997 L52.6624412,28.303196 C52.6178498,28.3915055 52.6178498,28.479815 52.6624412,28.5239697 Z M104.745195,52.4116905 L88.3801512,36.1627418 C88.3355594,36.1185871 88.2909685,36.1185871 88.2909685,36.1185871 L88.2463767,36.1185871 L77.1431185,40.8431455 C77.0985275,40.8873003 77.0539357,40.931455 77.0539357,40.9756097 C77.0539357,41.0197645 77.0985275,41.108074 77.1431185,41.108074 L104.522237,52.7207737 L104.566828,52.7207737 C104.61142,52.7207737 104.656011,52.7207737 104.656011,52.676619 L104.745195,52.5883095 C104.834377,52.5883095 104.834377,52.4558453 104.745195,52.4116905 Z M102.025119,55.0609756 L75.7607853,43.9339781 L75.7161943,43.9339781 C75.6716026,43.9339781 75.6270116,43.9339781 75.5824199,43.9781329 C74.8689575,44.9495374 73.7987639,45.567704 72.5502048,45.744323 C72.5056134,45.744323 72.4164306,45.7884777 72.4164306,45.8767872 L69.6071725,63.1412952 C69.6071725,63.18545 69.6071725,63.2296047 69.6517639,63.2737595 C70.6327747,64.0243903 71.2124628,65.128259 71.346237,66.3645921 C71.346237,66.4529016 71.3908284,66.4970564 71.4800113,66.4970564 L87.3545489,69.8086627 L87.3991406,69.8086627 C87.4437316,69.8086627 87.4883233,69.8086627 87.4883233,69.764508 L102.025119,55.3259041 C102.06971,55.2817494 102.06971,55.2375946 102.06971,55.1934399 C102.06971,55.1492851 102.06971,55.1051304 102.025119,55.0609756 Z M67.2438284,40.3132885 L52.8853982,34.2199327 L52.8408068,34.2199327 C52.7962154,34.2199327 52.751624,34.2640874 52.7070326,34.3082422 C51.7260219,35.8095038 50.0761401,36.6925988 48.2924842,36.6925988 C48.0249358,36.6925988 47.7573874,36.6484441 47.4452476,36.6042894 L47.4006562,36.6042894 C47.3560649,36.6042894 47.3114734,36.6484441 47.266882,36.6925988 L35.4501615,55.0168209 C35.4055701,55.0609756 35.4055701,55.1492851 35.4501615,55.1934399 C35.494753,55.2375946 35.5393443,55.2375946 35.5839357,55.2375946 L35.6285271,55.2375946 L67.1546456,41.7703953 C67.199237,41.7262405 67.2438284,41.6820858 67.2438284,41.637931 L67.2438284,41.461312 L67.2438284,41.2405383 C67.2438284,40.9756097 67.2884198,40.7106813 67.3330112,40.4899075 C67.3330112,40.401598 67.2884198,40.3574432 67.2438284,40.3132885 Z M84.5452909,72.3696383 L70.5881833,69.4995795 L70.5435919,69.4995795 C70.4990005,69.4995795 70.454409,69.5437342 70.4098177,69.5437342 C69.8747209,70.2060555 69.2058499,70.7359126 68.4032048,71.0449958 C68.3586133,71.0449958 68.314022,71.1333053 68.314022,71.17746 L64.9696671,91.7535742 C64.9696671,91.8418836 65.0142585,91.886039 65.0588499,91.9301938 L65.1480327,91.9301938 C65.1926241,91.9301938 65.2372155,91.9301938 65.2372155,91.886039 L84.5898826,72.6787216 C84.6344736,72.6345669 84.6344736,72.5904121 84.6344736,72.5462573 C84.6344736,72.4137931 84.5898826,72.3696383 84.5452909,72.3696383 Z M65.0588499,70.9566863 C63.721108,70.4268292 62.7400972,69.234651 62.383366,67.8658537 C62.383366,67.8216989 62.3387746,67.7775441 62.2495918,67.7333894 L36.3865809,62.3906644 C36.3865809,62.3906644 36.3865809,62.3906644 36.3419895,62.3906644 C36.2973981,62.3906644 36.2528067,62.4348192 36.2082153,62.478974 C36.0744411,62.6997477 35.9852583,62.8763667 35.8514841,63.0529857 C35.8068927,63.0971405 35.8068927,63.18545 35.8514841,63.2296047 L59.3957423,97.3170731 C59.4403337,97.3612278 59.4403337,97.3612278 59.4849251,97.3612278 C59.5295166,97.3612278 59.5741079,97.3612278 59.5741079,97.3170731 L61.0010326,95.9041214 C61.0010326,95.8599667 61.0456241,95.8599667 61.0456241,95.8158119 L65.0588499,71.0891505 C65.1480327,71.0891505 65.1480327,71.000841 65.0588499,70.9566863 Z M36.9216777,59.255677 C36.9216777,59.3439865 36.9662691,59.3881413 37.0554519,59.3881413 L62.6955058,64.6867115 L62.7400972,64.6867115 C62.7846886,64.6867115 62.82928,64.6425568 62.8738714,64.598402 C63.6319251,63.2737595 64.9696671,62.3906644 66.4857746,62.3023549 C66.5749574,62.3023549 66.6195488,62.2582001 66.6195488,62.1698906 L69.3842155,45.1703112 C69.3842155,45.1261564 69.3842155,45.0378469 69.2950327,45.0378469 C69.1166671,44.9053827 68.9383015,44.7729185 68.7153445,44.5521446 C68.6707531,44.5079899 68.6261618,44.5079899 68.6261618,44.5079899 L68.5815703,44.5079899 L36.8770862,58.0634987 C36.7879034,58.1076535 36.7879034,58.1518082 36.7879034,58.2401177 C36.8324949,58.5933558 36.9216777,58.902439 36.9216777,59.255677 Z M26.1751507,63.538688 C26.0413765,63.362069 25.9076023,63.18545 25.7738281,62.9646762 C25.7292368,62.9205214 25.6846453,62.8763667 25.640054,62.8763667 L25.5954625,62.8763667 L14.5367958,67.6009251 C14.4922044,67.6009251 14.447613,67.6450799 14.447613,67.6892346 C14.447613,67.7333894 14.447613,67.7775441 14.4922044,67.8216989 L19.8877635,73.1644239 C19.932355,73.2085786 19.9769464,73.2085786 19.9769464,73.2085786 C20.0215378,73.2085786 20.0661292,73.1644239 20.1107205,73.1202691 L26.2197421,63.6269974 C26.2197421,63.6269974 26.2197421,63.5828427 26.1751507,63.538688 Z M33.48814,65.2607233 C33.4435486,65.2165686 33.3989572,65.1724138 33.3543658,65.1724138 L33.3097744,65.1724138 C32.5071292,65.5256518 31.7044841,65.7022708 30.8572475,65.7022708 C30.1883765,65.7022708 29.564097,65.6139613 28.895226,65.3931876 L28.8506346,65.3931876 C28.8060432,65.3931876 28.7614518,65.4373423 28.7168604,65.4814971 L22.295699,75.4604713 L22.2511077,75.504626 C22.2065163,75.5487807 22.2065163,75.6370901 22.2511077,75.6812449 L51.7706132,104.955845 C51.8152046,105 51.8597961,105 51.8597961,105 C51.9043874,105 51.9489789,105 51.9489789,104.955845 L57.121581,99.7897395 C57.1661724,99.7455848 57.1661724,99.6572754 57.121581,99.6131199 L33.48814,65.2607233 Z M29.34114,53.7363331 C29.3857314,53.7804878 29.4303227,53.8246426 29.4749142,53.8246426 L29.5195056,53.8246426 C29.9654195,53.7363331 30.455925,53.6480236 30.9018389,53.6480236 C31.3923443,53.6480236 31.9274411,53.7363331 32.4179465,53.8687973 L32.4625379,53.8687973 C32.5071292,53.8687973 32.5517207,53.8246426 32.596312,53.7804878 L44.5468067,35.235492 C44.5913982,35.1913373 44.5913982,35.1030277 44.5468067,35.058873 C43.6103874,34.0874685 43.0752906,32.8069806 43.0752906,31.4381833 C43.0752906,31.0407906 43.119882,30.6433978 43.2090648,30.246005 C43.2090648,30.1576955 43.1644734,30.1135408 43.119882,30.069386 C41.6037744,29.4070647 28.1817636,23.7552565 28.1817636,23.7111018 L28.1371722,23.7111018 C28.0925808,23.7111018 28.0479895,23.7111018 28.0479895,23.7552565 L16.6771829,35.058873 C16.6325915,35.1030277 16.6325915,35.1913373 16.6771829,35.235492 L29.34114,53.7363331 Z M30.6342905,21.4150546 C30.6342905,21.4150546 44.1900756,27.1551724 44.7697637,27.4201009 L44.8143552,27.4201009 C44.8589465,27.4201009 44.8589465,27.4201009 44.9035379,27.3759462 C45.8399573,26.6253154 47.0439251,26.1837678 48.2478928,26.1837678 C48.827581,26.1837678 49.4072691,26.2720774 49.9869573,26.4486964 L50.0315487,26.4486964 C50.0761401,26.4486964 50.1207315,26.4045417 50.1653229,26.3603869 L61.1793983,9.27249787 C61.2239896,9.22834315 61.2239896,9.14003364 61.1793983,9.09587892 L52.0381616,0.0441547519 C51.9935702,0 51.9935702,0 51.9489789,0 C51.9043874,0 51.8597961,0 51.8597961,0.0441547519 L30.6342905,21.1501262 C30.5896991,21.1942809 30.5896991,21.2384356 30.5896991,21.2825904 C30.5451077,21.3708999 30.5896991,21.3708999 30.6342905,21.4150546 Z M25.3725055,56.95963 C25.417097,56.95963 25.4616883,56.9154752 25.5062798,56.8713204 C25.7738281,56.3414635 26.1751507,55.8557612 26.5764733,55.4142136 C26.6210647,55.3700589 26.6210647,55.2817494 26.5764733,55.2375946 C26.4426991,55.0609756 14.3584302,37.5756938 14.3584302,37.5315391 C14.3138388,37.4873844 14.3138388,37.4873844 14.224656,37.4432296 C14.1800646,37.4432296 14.1354732,37.4432296 14.1354732,37.4873844 L0.0445913982,51.4402859 C0,51.4844407 0,51.5285955 0,51.5727502 C0,51.616905 0.0445913982,51.6610597 0.133774194,51.6610597 L25.3725055,56.95963 C25.3279142,56.95963 25.3279142,56.95963 25.3725055,56.95963 Z M24.2131292,60.0063078 C24.2131292,59.9179983 24.1685378,59.8738436 24.079355,59.8738436 L2.18497851,55.3259041 C2.18497851,55.3259041 2.18497851,55.3259041 2.14038711,55.3259041 C2.09579571,55.3259041 2.05120431,55.3700589 2.00661292,55.4142136 C1.96202152,55.4583683 2.00661292,55.5466779 2.05120431,55.5908326 L11.8167205,65.3048781 C11.8613119,65.3490328 11.9059033,65.3490328 11.9059033,65.3490328 L11.9504947,65.3490328 L24.079355,60.1829268 C24.1685378,60.0946173 24.2131292,60.0504626 24.2131292,60.0063078 Z" id="Combined-Shape"></path>
            </g>
            <path d="M75.4688953,121.560924 L81.5064071,121.560924 L81.5064071,160.526471 L75.4688953,160.526471 L75.4688953,121.560924 Z M13.6976046,132.555042 C10.4524421,132.555042 7.84876516,133.789076 5.84883955,136.219748 L5.66016721,133.041176 L0,133.041176 L0,160.489076 L6.03751174,160.489076 L6.03751174,140.968907 C7.24501412,138.72521 9.05626754,137.603361 11.4712722,137.603361 C13.1315878,137.603361 14.3390902,138.014706 15.0937791,138.87479 C15.8484682,139.697479 16.1880783,141.006302 16.1880783,142.726471 L16.1880783,160.489076 L22.2255899,160.489076 L22.2255899,142.352521 C22.1501209,135.845798 19.3200373,132.555042 13.6976046,132.555042 Z M39.7721081,132.555042 C37.4703067,132.555042 35.3949122,133.153361 33.5081898,134.35 C31.6214673,135.546639 30.1875583,137.229412 29.1309938,139.398319 C28.1121637,141.567227 27.5838815,143.997899 27.5838815,146.727731 L27.5838815,147.47563 C27.5838815,151.551681 28.7913837,154.842437 31.168654,157.310504 C33.5459241,159.778571 36.6401489,161.012605 40.4890627,161.012605 C42.7153951,161.012605 44.7530556,160.563866 46.5643083,159.666387 C48.3755624,158.768907 49.8094719,157.497479 50.8660353,155.852101 L47.6208731,152.673529 C45.8850882,154.954622 43.6210216,156.113866 40.866407,156.113866 C38.9042158,156.113866 37.2439001,155.440756 35.9609289,154.131933 C34.6402233,152.823109 33.9232687,151.028151 33.7345965,148.747059 L51.3188492,148.747059 L51.3188492,146.278992 C51.3188492,141.903782 50.3000197,138.538235 48.3378271,136.144958 C46.2624328,133.751681 43.4323492,132.555042 39.7721081,132.555042 Z M45.2813373,144.222269 L33.7723309,144.222269 C34.0364721,142.090756 34.715692,140.445378 35.7345222,139.286134 C36.7533523,138.089496 38.1117924,137.528571 39.7721081,137.528571 C41.4324238,137.528571 42.7531296,138.052101 43.6964908,139.09916 C44.6398525,140.146218 45.1681342,141.716807 45.3190726,143.773529 L45.3190726,144.222269 L45.2813373,144.222269 Z M64.9032502,155.216387 C64.4881716,154.767647 64.2994993,153.982353 64.2994993,152.935294 L64.2994993,137.603361 L69.0540402,137.603361 L69.0540402,133.041176 L64.2994993,133.041176 L64.2994993,126.384874 L58.2619874,126.384874 L58.2619874,133.041176 L53.8470573,133.041176 L53.8470573,137.603361 L58.2619874,137.603361 L58.2619874,153.159664 C58.2619874,158.394958 60.6015232,161.012605 65.242861,161.012605 C66.525832,161.012605 67.8465369,160.82563 69.2427125,160.414286 L69.2427125,155.627731 C68.525757,155.814706 67.808803,155.889496 67.1295829,155.889496 C66.0352842,155.926891 65.3183287,155.702521 64.9032502,155.216387 Z M90.8645504,133.078571 L96.9020623,133.078571 L96.9020623,160.526471 L90.8645504,160.526471 L90.8645504,133.078571 Z M131.164941,151.701261 L125.467038,133.078571 L118.93898,133.078571 L128.410327,160.376891 L127.542434,162.732773 C127.08962,164.078992 126.485869,165.013866 125.693446,165.57479 C124.938757,166.135714 123.768989,166.434874 122.259612,166.434874 L121.127578,166.360084 L121.127578,171.146639 C122.184142,171.445798 123.165238,171.595378 124.03313,171.595378 C127.957513,171.595378 130.749863,169.276891 132.410178,164.677311 L143.12676,133.078571 L136.67417,133.078571 L131.164941,151.701261 Z M108.750678,123.505462 C107.090363,125.15084 106.260206,127.506723 106.260206,130.573109 L106.260206,133.078571 L102.147151,133.078571 L102.147151,137.640756 L106.260206,137.640756 L106.260206,160.526471 L112.297718,160.526471 L112.297718,137.640756 L117.769212,137.640756 L117.769212,133.078571 L112.297718,133.078571 L112.297718,130.647899 C112.297718,127.618907 113.731626,126.123109 116.637178,126.123109 C117.505071,126.123109 118.297494,126.197899 118.93898,126.310084 L119.089917,121.486134 C117.882415,121.186975 116.788117,121.037395 115.693817,121.037395 C112.75053,121 110.410994,121.860084 108.750678,123.505462 Z M96.9020623,121 L96.9020623,126.384874 L90.8645504,126.384874 L90.8645504,121 L96.9020623,121 Z" id="Combined-Shape"></path>
        </g>
    </g>
</svg>