<?xml version="1.0" encoding="UTF-8"?>
<svg width="87px" height="87px" viewBox="0 0 87 87" version="1.1" xmlns="http://www.w3.org/2000/svg" xmlns:xlink="http://www.w3.org/1999/xlink">
    <!-- Generator: Sketch 43.2 (39069) - http://www.bohemiancoding.com/sketch -->
    <title>netlify-mark-black</title>
    <desc>Created with Sketch.</desc>
    <defs></defs>
    <g id="Page-1" stroke="none" stroke-width="1" fill="none" fill-rule="evenodd">
        <g id="netlify-mark-black" fill-rule="nonzero" fill="#000000">
            <path d="M61.2583887,30.7682927 C61.7017546,30.9878049 62.0712265,31.2804878 62.3668035,31.6097561 C62.4037509,31.6463415 62.4037509,31.6463415 62.4406977,31.6463415 L62.4776451,31.6463415 L70.9754914,28.0243903 C71.0124383,27.9878049 71.0493857,27.9512195 71.0493857,27.9146342 C71.0493857,27.8780488 71.0493857,27.8414634 71.0124383,27.804878 L63.0687997,19.9390244 C63.0318523,19.902439 62.9949055,19.902439 62.9949055,19.902439 L62.957958,19.902439 C62.9210106,19.902439 62.8840638,19.9390244 62.8840638,20.0121951 L61.1475472,30.6585366 C61.1844944,30.6951219 61.2214416,30.7682927 61.2583887,30.7682927 Z M43.6345941,23.6341463 C44.0410129,24.2560976 44.299643,24.9878049 44.3735373,25.7195122 C44.3735373,25.7560976 44.4104845,25.7926829 44.4474317,25.8292683 L57.0833598,31.207317 L57.120307,31.207317 C57.1572541,31.207317 57.1942013,31.207317 57.1942013,31.1707317 C57.5636729,30.8780488 58.0070388,30.6585366 58.4873518,30.5121951 C58.524299,30.5121951 58.5612461,30.4756097 58.5612461,30.402439 L60.630287,17.5609756 C60.630287,17.5243903 60.630287,17.4878049 60.5933399,17.4512195 L52.686648,9.58536585 C52.6497008,9.54878052 52.6497008,9.54878052 52.6127537,9.54878052 C52.5758065,9.54878052 52.5388594,9.58536585 52.5388594,9.62195119 L43.6345941,23.4512195 C43.597647,23.5243902 43.597647,23.597561 43.6345941,23.6341463 Z M86.7888755,43.4268293 L73.2292681,29.9634146 C73.1923207,29.9268293 73.1553739,29.9268293 73.1553739,29.9268293 L73.1184264,29.9268293 L63.9185839,33.8414634 C63.881637,33.8780488 63.8446896,33.9146341 63.8446896,33.9512195 C63.8446896,33.9878049 63.881637,34.0609756 63.9185839,34.0609756 L86.6041396,43.6829268 L86.6410864,43.6829268 C86.6780338,43.6829268 86.7149806,43.6829268 86.7149806,43.6463415 L86.7888755,43.5731707 C86.8627698,43.5731707 86.8627698,43.4634147 86.7888755,43.4268293 Z M84.5350988,45.6219512 L62.7732221,36.402439 L62.7362753,36.402439 C62.6993279,36.402439 62.6623811,36.402439 62.6254336,36.4390244 C62.034279,37.2439024 61.1475472,37.7560976 60.1130268,37.9024391 C60.0760797,37.9024391 60.0021854,37.9390244 60.0021854,38.0121951 L57.6745143,52.3170731 C57.6745143,52.3536585 57.6745143,52.3902439 57.7114615,52.4268293 C58.524299,53.0487805 59.0046121,53.9634146 59.1154535,54.9878049 C59.1154535,55.0609756 59.1524007,55.097561 59.226295,55.097561 L72.3794834,57.8414634 L72.4164308,57.8414634 C72.4533776,57.8414634 72.490325,57.8414634 72.490325,57.8048781 L84.5350988,45.8414634 C84.5720457,45.8048781 84.5720457,45.7682927 84.5720457,45.7317073 C84.5720457,45.6951219 84.5720457,45.6585366 84.5350988,45.6219512 Z M55.716315,33.402439 L43.8193299,28.3536585 L43.7823828,28.3536585 C43.7454356,28.3536585 43.7084885,28.3902439 43.6715413,28.4268293 C42.8587038,29.6707317 41.491659,30.402439 40.0137726,30.402439 C39.7920897,30.402439 39.5704067,30.3658537 39.3117766,30.3292683 L39.2748294,30.3292683 C39.2378823,30.3292683 39.2009351,30.3658537 39.1639879,30.402439 L29.372991,45.5853659 C29.3360438,45.6219512 29.3360438,45.6951219 29.372991,45.7317073 C29.4099382,45.7682927 29.4468853,45.7682927 29.4838325,45.7682927 L29.5207796,45.7682927 L55.6424207,34.6097561 C55.6793678,34.5731707 55.716315,34.5365854 55.716315,34.5 L55.716315,34.3536585 L55.716315,34.1707317 C55.716315,33.9512195 55.7532621,33.7317073 55.7902093,33.5487805 C55.7902093,33.4756098 55.7532621,33.4390244 55.716315,33.402439 Z M70.0518124,59.9634146 L58.4873518,57.5853659 L58.4504047,57.5853659 C58.4134575,57.5853659 58.3765103,57.6219512 58.3395632,57.6219512 C57.8961973,58.1707317 57.3419899,58.6097561 56.6769411,58.8658537 C56.6399939,58.8658537 56.6030468,58.9390244 56.6030468,58.9756097 L53.8320099,76.02439 C53.8320099,76.0975607 53.868957,76.1341466 53.9059042,76.170732 L53.9797985,76.170732 C54.0167457,76.170732 54.0536928,76.170732 54.0536928,76.1341466 L70.0887599,60.2195122 C70.1257067,60.1829268 70.1257067,60.1463415 70.1257067,60.1097561 C70.1257067,60 70.0887599,59.9634146 70.0518124,59.9634146 Z M53.9059042,58.7926829 C52.7974895,58.3536585 51.984652,57.3658537 51.6890747,56.2317073 C51.6890747,56.195122 51.6521275,56.1585366 51.5782332,56.1219512 L30.1488813,51.695122 C30.1488813,51.695122 30.1488813,51.695122 30.1119342,51.695122 C30.074987,51.695122 30.0380398,51.7317073 30.0010927,51.7682927 C29.8902512,51.9512195 29.8163569,52.097561 29.7055154,52.2439025 C29.6685683,52.2804878 29.6685683,52.3536585 29.7055154,52.3902439 L49.2136151,80.6341463 C49.2505622,80.6707316 49.2505622,80.6707316 49.2875094,80.6707316 C49.3244566,80.6707316 49.3614037,80.6707316 49.3614037,80.6341463 L50.5437127,79.4634149 C50.5437127,79.4268295 50.5806599,79.4268295 50.5806599,79.3902442 L53.9059042,58.902439 C53.9797985,58.902439 53.9797985,58.8292683 53.9059042,58.7926829 Z M30.5922472,49.0975609 C30.5922472,49.1707317 30.6291944,49.2073171 30.7030887,49.2073171 L51.9477048,53.597561 L51.984652,53.597561 C52.0215991,53.597561 52.0585463,53.5609756 52.0954935,53.5243902 C52.7235951,52.4268293 53.8320099,51.695122 55.0882133,51.6219512 C55.1621076,51.6219512 55.1990547,51.5853658 55.1990547,51.5121951 L57.4897786,37.4268293 C57.4897786,37.3902439 57.4897786,37.3170732 57.4158842,37.3170732 C57.2680956,37.2073171 57.120307,37.097561 56.9355712,36.9146341 C56.898624,36.8780488 56.8616769,36.8780488 56.8616769,36.8780488 L56.8247297,36.8780488 L30.5553,48.1097561 C30.4814057,48.1463415 30.4814057,48.1829268 30.4814057,48.2560976 C30.5183529,48.5487805 30.5922472,48.8048781 30.5922472,49.0975609 Z M21.687982,52.6463415 C21.5771406,52.5 21.4662991,52.3536585 21.3554576,52.1707317 C21.3185105,52.1341463 21.2815633,52.097561 21.2446161,52.097561 L21.207669,52.097561 L12.0447736,56.0121951 C12.0078265,56.0121951 11.9708793,56.0487805 11.9708793,56.0853658 C11.9708793,56.1219512 11.9708793,56.1585366 12.0078265,56.195122 L16.4784326,60.6219512 C16.5153798,60.6585366 16.552327,60.6585366 16.552327,60.6585366 C16.5892741,60.6585366 16.6262213,60.6219512 16.6631684,60.5853658 L21.7249292,52.7195122 C21.7249292,52.7195122 21.7249292,52.6829268 21.687982,52.6463415 Z M27.747316,54.0731707 C27.7103688,54.0365854 27.6734217,54 27.6364745,54 L27.5995273,54 C26.9344785,54.2926829 26.2694297,54.4390244 25.5674337,54.4390244 C25.0132263,54.4390244 24.4959661,54.3658537 23.9417587,54.1829269 L23.9048115,54.1829269 C23.8678643,54.1829269 23.8309172,54.2195122 23.79397,54.2560976 L18.4735792,62.5243905 L18.4366321,62.5609758 C18.3996849,62.5975612 18.3996849,62.6707318 18.4366321,62.7073172 L42.8956509,86.9634147 C42.9325981,87 42.9695453,87 42.9695453,87 C43.0064924,87 43.0434396,87 43.0434396,86.9634147 L47.32931,82.682927 C47.3662571,82.6463417 47.3662571,82.573171 47.32931,82.5365851 L27.747316,54.0731707 Z M24.3112303,44.5243903 C24.3481774,44.5609756 24.3851246,44.597561 24.4220717,44.597561 L24.4590189,44.597561 C24.8284905,44.5243903 25.2349093,44.4512195 25.6043808,44.4512195 C26.0107996,44.4512195 26.4541655,44.5243903 26.8605842,44.6341463 L26.8975314,44.6341463 C26.9344785,44.6341463 26.9714257,44.597561 27.0083728,44.5609756 L36.9102113,29.1951219 C36.9471585,29.1585366 36.9471585,29.0853658 36.9102113,29.0487805 C36.134321,28.2439025 35.6909551,27.1829268 35.6909551,26.0487805 C35.6909551,25.7195122 35.7279022,25.3902439 35.8017965,25.0609756 C35.8017965,24.9878049 35.7648494,24.9512195 35.7279022,24.9146341 C34.4716988,24.3658536 23.3506041,19.6829268 23.3506041,19.6463415 L23.313657,19.6463415 C23.2767098,19.6463415 23.2397627,19.6463415 23.2397627,19.6829268 L13.8182373,29.0487805 C13.7812901,29.0853658 13.7812901,29.1585366 13.8182373,29.1951219 L24.3112303,44.5243903 Z M25.3826979,17.7439024 C25.3826979,17.7439024 36.6146341,22.5 37.0949471,22.7195122 L37.1318943,22.7195122 C37.1688414,22.7195122 37.1688414,22.7195122 37.2057886,22.6829269 C37.9816789,22.0609756 38.9792522,21.6951219 39.9768255,21.6951219 C40.4571385,21.6951219 40.9374516,21.7682927 41.4177646,21.9146341 L41.4547118,21.9146341 C41.491659,21.9146341 41.5286061,21.8780488 41.5655533,21.8414634 L50.6915014,7.68292681 C50.7284485,7.64634147 50.7284485,7.57317073 50.6915014,7.53658539 L43.1173339,0.0365853658 C43.0803867,0 43.0803867,0 43.0434396,0 C43.0064924,0 42.9695453,0 42.9695453,0.0365853658 L25.3826979,17.5243903 C25.3457507,17.5609756 25.3457507,17.5975609 25.3457507,17.6341463 C25.3088036,17.7073171 25.3457507,17.7073171 25.3826979,17.7439024 Z M21.0229332,47.195122 C21.0598803,47.195122 21.0968275,47.1585366 21.1337746,47.1219512 C21.3554576,46.6829269 21.687982,46.2804878 22.0205065,45.9146341 C22.0574536,45.8780488 22.0574536,45.8048781 22.0205065,45.7682927 C21.909665,45.6219512 11.896985,31.1341463 11.896985,31.097561 C11.8600379,31.0609756 11.8600379,31.0609756 11.7861435,31.0243902 C11.7491964,31.0243902 11.7122492,31.0243902 11.7122492,31.0609756 L0.0369471585,42.6219512 C0,42.6585366 0,42.695122 0,42.7317073 C0,42.7682927 0.0369471585,42.804878 0.110841475,42.804878 L21.0229332,47.195122 C20.985986,47.195122 20.985986,47.195122 21.0229332,47.195122 Z M20.062307,49.7195122 C20.062307,49.6463414 20.0253599,49.6097561 19.9514655,49.6097561 L1.81041077,45.8414634 C1.81041077,45.8414634 1.81041077,45.8414634 1.77346361,45.8414634 C1.73651645,45.8414634 1.69956929,45.8780488 1.66262213,45.9146341 C1.62567497,45.9512195 1.66262213,46.0243902 1.69956929,46.0609756 L9.79099697,54.1097561 C9.82794416,54.1463415 9.86489134,54.1463415 9.86489134,54.1463415 L9.90183846,54.1463415 L19.9514655,49.8658537 C20.0253599,49.7926829 20.062307,49.7560976 20.062307,49.7195122 Z" id="Combined-Shape"></path>
        </g>
    </g>
</svg>