<?xml version="1.0" encoding="UTF-8" standalone="no"?>
<svg width="510px" height="275px" viewBox="0 0 510 275" version="1.1" xmlns="http://www.w3.org/2000/svg" xmlns:xlink="http://www.w3.org/1999/xlink">
    <!-- Generator: Sketch 41.2 (35397) - http://www.bohemiancoding.com/sketch -->
    <title>Artboard 2 Copy</title>
    <desc>Created with Sketch.</desc>
    <defs></defs>
    <g id="Page-1" stroke="none" stroke-width="1" fill="none" fill-rule="evenodd">
        <g id="Artboard-2-Copy" fill="#000000">
            <path d="M38.8378906,52.6640625 L12.3720703,52.6640625 L6.36621094,69 L1.20117188,69 L23.2626953,10.703125 L27.9472656,10.703125 L50.0087891,69 L44.8837891,69 L38.8378906,52.6640625 Z M13.8935547,48.4599609 L37.2763672,48.4599609 L25.5849609,16.7089844 L13.8935547,48.4599609 Z M84.8027344,69 C84.3222632,67.6386651 84.0153001,65.6233857 83.8818359,62.9541016 C82.2001869,65.1429146 80.0581185,66.8312115 77.4555664,68.019043 C74.8530143,69.2068744 72.0970198,69.8007812 69.1875,69.8007812 C65.0234167,69.8007812 61.653496,68.63966 59.0776367,66.3173828 C56.5017775,63.9951056 55.2138672,61.058937 55.2138672,57.5087891 C55.2138672,53.2913201 56.9688952,49.9547649 60.4790039,47.4990234 C63.9891126,45.043282 68.8805025,43.8154297 75.1533203,43.8154297 L83.8417969,43.8154297 L83.8417969,38.890625 C83.8417969,35.7942554 82.8875421,33.3585701 80.9790039,31.5834961 C79.0704657,29.8084221 76.2877787,28.9208984 72.6308594,28.9208984 C69.2942542,28.9208984 66.5315865,29.7750566 64.3427734,31.4833984 C62.1539604,33.1917403 61.0595703,35.2470583 61.0595703,37.6494141 L56.2548828,37.609375 C56.2548828,34.1659984 57.8564293,31.1831181 61.0595703,28.6606445 C64.2627113,26.138171 68.1998464,24.8769531 72.8710938,24.8769531 C77.7024981,24.8769531 81.5128441,26.0847861 84.3022461,28.5004883 C87.0916481,30.9161905 88.5263668,34.2861112 88.6064453,38.6103516 L88.6064453,59.1103516 C88.6064453,63.3011277 89.0468706,66.4374896 89.9277344,68.5195312 L89.9277344,69 L84.8027344,69 Z M69.7480469,65.5566406 C72.9511879,65.5566406 75.8139522,64.7825598 78.3364258,63.234375 C80.8588993,61.6861902 82.6940047,59.617526 83.8417969,57.0283203 L83.8417969,47.4990234 L75.2734375,47.4990234 C70.4954188,47.5524091 66.758477,48.4265866 64.0625,50.121582 C61.366523,51.8165775 60.0185547,54.145493 60.0185547,57.1083984 C60.0185547,59.537447 60.9194246,61.5527264 62.7211914,63.1542969 C64.5229582,64.7558674 66.86522,65.5566406 69.7480469,65.5566406 Z M101.899414,69 L101.899414,10.703125 L120.958008,10.703125 C127.284211,10.703125 132.042139,12.0110546 135.231934,14.6269531 C138.421728,17.2428516 140.016602,21.1132556 140.016602,26.2382812 C140.016602,28.9609511 139.242521,31.369944 137.694336,33.465332 C136.146151,35.5607201 134.037448,37.1822859 131.368164,38.3300781 C134.517919,39.2109419 137.00699,40.8858926 138.835449,43.3549805 C140.663909,45.8240683 141.578125,48.76691 141.578125,52.1835938 C141.578125,57.4153907 139.883155,61.5260267 136.493164,64.515625 C133.103173,67.5052233 128.31188,69 122.119141,69 L101.899414,69 Z M109.586914,41.7333984 L109.586914,62.7138672 L122.279297,62.7138672 C125.856138,62.7138672 128.678863,61.7863048 130.747559,59.9311523 C132.816254,58.0759998 133.850586,55.5201986 133.850586,52.2636719 C133.850586,45.2434545 130.033567,41.7333984 122.399414,41.7333984 L109.586914,41.7333984 Z M109.586914,35.5673828 L121.198242,35.5673828 C124.56154,35.5673828 127.250804,34.7265709 129.266113,33.0449219 C131.281423,31.3632728 132.289062,29.0810691 132.289062,26.1982422 C132.289062,22.9951012 131.354827,20.6661857 129.486328,19.2114258 C127.617829,17.7566659 124.775084,17.0292969 120.958008,17.0292969 L109.586914,17.0292969 L109.586914,35.5673828 Z M188.463867,47.8193359 C188.463867,54.4391607 186.942398,59.7576297 183.899414,63.7749023 C180.85643,67.792175 176.772487,69.8007812 171.647461,69.8007812 C166.175428,69.8007812 161.944676,67.8655792 158.955078,63.9951172 L158.594727,69 L151.788086,69 L151.788086,7.5 L159.195312,7.5 L159.195312,30.4423828 C162.184911,26.7320778 166.308893,24.8769531 171.567383,24.8769531 C176.825873,24.8769531 180.956528,26.86554 183.959473,30.8427734 C186.962417,34.8200069 188.463867,40.2652649 188.463867,47.1787109 L188.463867,47.8193359 Z M181.056641,46.9785156 C181.056641,41.9335685 180.082367,38.0364721 178.133789,35.2871094 C176.185212,32.5377467 173.382505,31.1630859 169.725586,31.1630859 C164.840796,31.1630859 161.33074,33.4319435 159.195312,37.9697266 L159.195312,56.7080078 C161.464204,61.2457909 165.000953,63.5146484 169.805664,63.5146484 C173.355812,63.5146484 176.11848,62.1399877 178.09375,59.390625 C180.06902,56.6412623 181.056641,52.5039339 181.056641,46.9785156 Z M242.59668,50.0214844 C242.009437,56.2409165 239.713887,61.0922677 235.709961,64.5756836 C231.706035,68.0590994 226.380893,69.8007812 219.734375,69.8007812 C215.089821,69.8007812 210.999204,68.699718 207.462402,66.4975586 C203.925601,64.2953991 201.196299,61.1657104 199.274414,57.1083984 C197.352529,53.0510865 196.351563,48.3398706 196.271484,42.9746094 L196.271484,37.5292969 C196.271484,32.0305715 197.245758,27.1858933 199.194336,22.9951172 C201.142913,18.804341 203.938947,15.5745556 207.58252,13.3056641 C211.226092,11.0367725 215.436825,9.90234375 220.214844,9.90234375 C226.647819,9.90234375 231.826152,11.6506987 235.75,15.1474609 C239.673848,18.6442232 241.956051,23.5823249 242.59668,29.9619141 L232.506836,29.9619141 C232.026365,25.7711379 230.805186,22.7482189 228.843262,20.8930664 C226.881338,19.0379139 224.005227,18.1103516 220.214844,18.1103516 C215.810525,18.1103516 212.427258,19.7185712 210.064941,22.9350586 C207.702625,26.151546 206.494792,30.869435 206.441406,37.0888672 L206.441406,42.2539062 C206.441406,48.5534169 207.569162,53.3580564 209.824707,56.6679688 C212.080252,59.9778811 215.383442,61.6328125 219.734375,61.6328125 C223.711608,61.6328125 226.701162,60.7386157 228.703125,58.9501953 C230.705088,57.1617749 231.972979,54.1855677 232.506836,50.0214844 L242.59668,50.0214844 Z M268.501953,62.0332031 C270.931002,62.0332031 272.946281,61.3258534 274.547852,59.9111328 C276.149422,58.4964122 277.00358,56.7480573 277.110352,54.6660156 L286.279297,54.6660156 C286.172526,57.3619926 285.331714,59.8777552 283.756836,62.2133789 C282.181958,64.5490026 280.046563,66.3974541 277.350586,67.7587891 C274.654609,69.120124 271.745133,69.8007812 268.62207,69.8007812 C262.562795,69.8007812 257.758156,67.8388868 254.208008,63.9150391 C250.65786,59.9911913 248.882812,54.5726257 248.882812,47.6591797 L248.882812,46.6582031 C248.882812,40.0650712 250.644514,34.7866409 254.167969,30.8227539 C257.691424,26.8588669 262.496063,24.8769531 268.582031,24.8769531 C273.73375,24.8769531 277.931136,26.378403 281.174316,29.3813477 C284.417497,32.3842924 286.11914,36.3281006 286.279297,41.2128906 L277.110352,41.2128906 C277.00358,38.7304563 276.156095,36.6884846 274.567871,35.0869141 C272.979647,33.4853436 270.957695,32.6845703 268.501953,32.6845703 C265.352198,32.6845703 262.923186,33.8256722 261.214844,36.1079102 C259.506502,38.3901481 258.638998,41.8534924 258.612305,46.4980469 L258.612305,48.0595703 C258.612305,52.7575105 259.45979,56.2608934 261.154785,58.5698242 C262.849781,60.878755 265.298812,62.0332031 268.501953,62.0332031 Z M320.712891,69 L309.141602,69 L309.141602,24.3964844 L295.328125,28.6806641 L295.328125,19.2714844 L319.47168,10.6230469 L320.712891,10.6230469 L320.712891,69 Z M379.610352,69 L339.651367,69 L339.651367,61.0722656 L358.509766,40.9726562 C361.098971,38.143215 363.014154,35.6741642 364.255371,33.5654297 C365.496588,31.4566952 366.117188,29.4547621 366.117188,27.5595703 C366.117188,24.9703647 365.463223,22.935066 364.155273,21.4536133 C362.847324,19.9721606 360.978853,19.2314453 358.549805,19.2314453 C355.933906,19.2314453 353.871915,20.1323152 352.36377,21.934082 C350.855624,23.7358489 350.101562,26.104803 350.101562,29.0410156 L338.490234,29.0410156 C338.490234,25.4908677 339.337719,22.247736 341.032715,19.3115234 C342.72771,16.3753108 345.123357,14.0730878 348.219727,12.4047852 C351.316096,10.7364825 354.826152,9.90234375 358.75,9.90234375 C364.755889,9.90234375 369.420394,11.3437356 372.743652,14.2265625 C376.066911,17.1093894 377.728516,21.1799867 377.728516,26.4384766 C377.728516,29.3213035 376.981127,32.257472 375.486328,35.2470703 C373.991529,38.2366686 371.429055,41.7200322 367.798828,45.6972656 L354.545898,59.6708984 L379.610352,59.6708984 L379.610352,69 Z M398.46875,34.7265625 L404.634766,34.7265625 C407.570978,34.7265625 409.746412,33.9925204 411.161133,32.5244141 C412.575853,31.0563078 413.283203,29.1077595 413.283203,26.6787109 C413.283203,24.3297409 412.582527,22.5013086 411.181152,21.1933594 C409.779778,19.8854101 407.851249,19.2314453 405.395508,19.2314453 C403.180002,19.2314453 401.324877,19.8386984 399.830078,21.0532227 C398.335279,22.267747 397.587891,23.8492741 397.587891,25.7978516 L386.016602,25.7978516 C386.016602,22.7548676 386.837394,20.0255655 388.479004,17.6098633 C390.120614,15.1941611 392.416164,13.3056709 395.365723,11.9443359 C398.315282,10.583001 401.565086,9.90234375 405.115234,9.90234375 C411.281281,9.90234375 416.112613,11.3771011 419.609375,14.3266602 C423.106137,17.2762192 424.854492,21.3401434 424.854492,26.5185547 C424.854492,29.1878389 424.040373,31.6435435 422.412109,33.8857422 C420.783846,36.1279409 418.648451,37.8496034 416.005859,39.0507812 C419.289079,40.2252663 421.73811,41.9869674 423.353027,44.3359375 C424.967944,46.6849076 425.775391,49.4609215 425.775391,52.6640625 C425.775391,57.8424738 423.8869,61.9931484 420.109863,65.1162109 C416.332826,68.2392734 411.334667,69.8007812 405.115234,69.8007812 C399.296195,69.8007812 394.538267,68.2659659 390.841309,65.1962891 C387.14435,62.1266123 385.295898,58.0693612 385.295898,53.0244141 L396.867188,53.0244141 C396.867188,55.2132271 397.68798,57.0016207 399.32959,58.3896484 C400.9712,59.7776762 402.993152,60.4716797 405.395508,60.4716797 C408.144871,60.4716797 410.300285,59.7443107 411.861816,58.2895508 C413.423348,56.8347909 414.204102,54.906262 414.204102,52.5039062 C414.204102,46.6848667 411.001009,43.7753906 404.594727,43.7753906 L398.46875,43.7753906 L398.46875,34.7265625 Z" id="AaBbCc123"></path>
            <path d="M10.6523438,183 C10.511718,182.718749 10.3974614,182.217777 10.3095703,181.49707 C9.17577558,182.674811 7.82227349,183.263672 6.24902344,183.263672 C4.84276641,183.263672 3.68921349,182.865971 2.78833008,182.070557 C1.88744667,181.275143 1.43701172,180.266608 1.43701172,179.044922 C1.43701172,177.559563 2.00170334,176.40601 3.13110352,175.584229 C4.26050369,174.762447 5.84911085,174.351562 7.89697266,174.351562 L10.2700195,174.351562 L10.2700195,173.230957 C10.2700195,172.378414 10.0151393,171.699465 9.50537109,171.194092 C8.99560292,170.688718 8.24414559,170.436035 7.25097656,170.436035 C6.38085502,170.436035 5.65137013,170.65576 5.0625,171.095215 C4.47362987,171.53467 4.17919922,172.066403 4.17919922,172.69043 L1.72705078,172.69043 C1.72705078,171.978512 1.9797338,171.290775 2.48510742,170.627197 C2.99048104,169.96362 3.67602106,169.438478 4.54174805,169.051758 C5.40747503,168.665037 6.35888153,168.47168 7.39599609,168.47168 C9.039559,168.47168 10.3271438,168.882564 11.2587891,169.704346 C12.1904343,170.526127 12.6738279,171.657708 12.7089844,173.099121 L12.7089844,179.664551 C12.7089844,180.974128 12.8759749,182.015621 13.2099609,182.789062 L13.2099609,183 L10.6523438,183 Z M6.60498047,181.141113 C7.36963273,181.141113 8.09472313,180.943361 8.78027344,180.547852 C9.46582374,180.152342 9.96240081,179.638187 10.2700195,179.005371 L10.2700195,176.078613 L8.35839844,176.078613 C5.37010225,176.078613 3.87597656,176.953116 3.87597656,178.702148 C3.87597656,179.466801 4.13085683,180.064451 4.640625,180.495117 C5.15039317,180.925783 5.80517178,181.141113 6.60498047,181.141113 Z M29.6083984,176.025879 C29.6083984,178.205577 29.1074269,179.95678 28.1054688,181.279541 C27.1035106,182.602302 25.7587975,183.263672 24.0712891,183.263672 C22.2695222,183.263672 20.8764698,182.626471 19.8920898,181.352051 L19.7734375,183 L17.5322266,183 L17.5322266,162.75 L19.9711914,162.75 L19.9711914,170.304199 C20.9555713,169.082513 22.3134679,168.47168 24.0449219,168.47168 C25.7763758,168.47168 27.1364697,169.126458 28.1252441,170.436035 C29.1140186,171.745612 29.6083984,173.538563 29.6083984,175.814941 L29.6083984,176.025879 Z M27.1694336,175.749023 C27.1694336,174.087882 26.848636,172.804692 26.2070312,171.899414 C25.5654265,170.994136 24.6425841,170.541504 23.4384766,170.541504 C21.8300701,170.541504 20.6743199,171.288567 19.9711914,172.782715 L19.9711914,178.952637 C20.7182655,180.446785 21.8828046,181.193848 23.4648438,181.193848 C24.6337949,181.193848 25.5434538,180.741215 26.1938477,179.835938 C26.8442415,178.93066 27.1694336,177.568368 27.1694336,175.749023 Z M39.4018555,181.272949 C40.271977,181.272949 41.0322233,181.00928 41.6826172,180.481934 C42.3330111,179.954587 42.693359,179.295414 42.7636719,178.504395 L45.0708008,178.504395 C45.0268552,179.321781 44.7456081,180.099606 44.2270508,180.837891 C43.7084935,181.576176 43.0163618,182.165037 42.1506348,182.604492 C41.2849078,183.043948 40.3686572,183.263672 39.4018555,183.263672 C37.4594629,183.263672 35.9148007,182.615485 34.7678223,181.319092 C33.6208439,180.022699 33.0473633,178.249523 33.0473633,175.999512 L33.0473633,175.59082 C33.0473633,174.202141 33.3022435,172.967291 33.8120117,171.88623 C34.3217799,170.80517 35.053462,169.965823 36.0070801,169.368164 C36.9606981,168.770505 38.0878841,168.47168 39.3886719,168.47168 C40.9882892,168.47168 42.3176217,168.950679 43.376709,169.908691 C44.4357963,170.866704 45.0004879,172.110344 45.0708008,173.639648 L42.7636719,173.639648 C42.693359,172.716792 42.3439973,171.958743 41.7155762,171.365479 C41.0871551,170.772214 40.3115281,170.475586 39.3886719,170.475586 C38.1494079,170.475586 37.1892124,170.921626 36.5080566,171.813721 C35.8269009,172.705815 35.4863281,173.995597 35.4863281,175.683105 L35.4863281,176.144531 C35.4863281,177.788094 35.8247036,179.053706 36.5014648,179.941406 C37.178226,180.829106 38.1450132,181.272949 39.4018555,181.272949 Z M48.2197266,175.749023 C48.2197266,173.560536 48.7382761,171.800544 49.7753906,170.468994 C50.8125052,169.137445 52.1704018,168.47168 53.8491211,168.47168 C55.5190513,168.47168 56.841792,169.042963 57.8173828,170.185547 L57.8173828,162.75 L60.2563477,162.75 L60.2563477,183 L58.0151367,183 L57.8964844,181.470703 C56.9208936,182.666022 55.562997,183.263672 53.8227539,183.263672 C52.1704019,183.263672 50.8234915,182.586921 49.7819824,181.233398 C48.7404733,179.879876 48.2197266,178.113292 48.2197266,175.933594 L48.2197266,175.749023 Z M50.6586914,176.025879 C50.6586914,177.643074 50.9926724,178.908687 51.6606445,179.822754 C52.3286166,180.736821 53.251459,181.193848 54.4291992,181.193848 C55.976082,181.193848 57.1054652,180.499519 57.8173828,179.11084 L57.8173828,172.558594 C57.087887,171.21386 55.9672927,170.541504 54.4555664,170.541504 C53.2602479,170.541504 52.3286166,171.002925 51.6606445,171.925781 C50.9926724,172.848637 50.6586914,174.215323 50.6586914,176.025879 Z M70.9594727,183.263672 C69.0258692,183.263672 67.4526428,182.628668 66.2397461,181.358643 C65.0268494,180.088617 64.4204102,178.390147 64.4204102,176.263184 L64.4204102,175.814941 C64.4204102,174.399895 64.6906711,173.13648 65.2312012,172.024658 C65.7717312,170.912836 66.527583,170.042728 67.4987793,169.414307 C68.4699756,168.785886 69.5224553,168.47168 70.65625,168.47168 C72.5107515,168.47168 73.9521433,169.082513 74.9804688,170.304199 C76.0087942,171.525885 76.5229492,173.274891 76.5229492,175.55127 L76.5229492,176.566406 L66.859375,176.566406 C66.8945314,177.972663 67.305416,179.108638 68.092041,179.974365 C68.878666,180.840092 69.8784119,181.272949 71.0913086,181.272949 C71.952641,181.272949 72.6821259,181.09717 73.2797852,180.745605 C73.8774444,180.394041 74.4003884,179.928226 74.8486328,179.348145 L76.3383789,180.508301 C75.1430604,182.345224 73.3501096,183.263672 70.9594727,183.263672 Z M70.65625,170.475586 C69.6718701,170.475586 68.8457065,170.833737 68.1777344,171.550049 C67.5097623,172.266361 67.0966805,173.270501 66.9384766,174.5625 L74.0839844,174.5625 L74.0839844,174.37793 C74.0136715,173.138666 73.6796905,172.17847 73.0820312,171.497314 C72.484372,170.816159 71.6757863,170.475586 70.65625,170.475586 Z M81.5439453,183 L81.5439453,170.620605 L79.2895508,170.620605 L79.2895508,168.735352 L81.5439453,168.735352 L81.5439453,167.271973 C81.5439453,165.742668 81.9526326,164.560551 82.7700195,163.725586 C83.5874064,162.890621 84.7431566,162.473145 86.2373047,162.473145 C86.7998075,162.473145 87.3579074,162.547851 87.9116211,162.697266 L87.7797852,164.674805 C87.3666972,164.595703 86.9272484,164.556152 86.4614258,164.556152 C85.6704062,164.556152 85.0595725,164.786863 84.6289062,165.248291 C84.19824,165.709719 83.9829102,166.371089 83.9829102,167.232422 L83.9829102,168.735352 L87.0283203,168.735352 L87.0283203,170.620605 L83.9829102,170.620605 L83.9829102,183 L81.5439453,183 Z M90.1376953,175.749023 C90.1376953,173.52538 90.6518503,171.756598 91.6801758,170.442627 C92.7085012,169.128656 94.0707923,168.47168 95.7670898,168.47168 C97.5073329,168.47168 98.8652295,169.086908 99.8408203,170.317383 L99.9594727,168.735352 L102.1875,168.735352 L102.1875,182.657227 C102.1875,184.502939 101.640386,185.957514 100.546143,187.020996 C99.4518988,188.084478 97.9819428,188.616211 96.1362305,188.616211 C95.107905,188.616211 94.1015674,188.396487 93.1171875,187.957031 C92.1328076,187.517576 91.3813502,186.915531 90.862793,186.150879 L92.128418,184.6875 C93.1743216,185.979499 94.4531174,186.625488 95.9648438,186.625488 C97.1513731,186.625488 98.0764127,186.291507 98.7399902,185.623535 C99.4035678,184.955563 99.7353516,184.015143 99.7353516,182.802246 L99.7353516,181.576172 C98.7597607,182.701178 97.4282311,183.263672 95.7407227,183.263672 C94.0707924,183.263672 92.7194876,182.591315 91.6867676,181.246582 C90.6540476,179.901849 90.1376953,178.069348 90.1376953,175.749023 Z M92.5898438,176.025879 C92.5898438,177.634285 92.9194303,178.8977 93.5786133,179.816162 C94.2377963,180.734624 95.1606386,181.193848 96.347168,181.193848 C97.8852616,181.193848 99.0146448,180.495124 99.7353516,179.097656 L99.7353516,172.584961 C98.9882775,171.222649 97.8676833,170.541504 96.3735352,170.541504 C95.1870058,170.541504 94.259769,171.002925 93.5917969,171.925781 C92.9238248,172.848637 92.5898438,174.215323 92.5898438,176.025879 Z M109.304688,170.462402 C110.385748,169.135247 111.791984,168.47168 113.523438,168.47168 C116.538101,168.47168 118.058594,170.172346 118.084961,173.57373 L118.084961,183 L115.645996,183 L115.645996,173.560547 C115.637207,172.532221 115.402102,171.771975 114.940674,171.279785 C114.479246,170.787595 113.760747,170.541504 112.785156,170.541504 C111.994137,170.541504 111.299808,170.752439 110.702148,171.174316 C110.104489,171.596194 109.638674,172.149899 109.304688,172.835449 L109.304688,183 L106.865723,183 L106.865723,162.75 L109.304688,162.75 L109.304688,170.462402 Z M125.386719,183 L122.947754,183 L122.947754,168.735352 L125.386719,168.735352 L125.386719,183 Z M122.75,164.95166 C122.75,164.55615 122.870848,164.222169 123.112549,163.949707 C123.354249,163.677245 123.7124,163.541016 124.187012,163.541016 C124.661623,163.541016 125.021971,163.677245 125.268066,163.949707 C125.514161,164.222169 125.637207,164.55615 125.637207,164.95166 C125.637207,165.34717 125.514161,165.676756 125.268066,165.94043 C125.021971,166.204103 124.661623,166.335938 124.187012,166.335938 C123.7124,166.335938 123.354249,166.204103 123.112549,165.94043 C122.870848,165.676756 122.75,165.34717 122.75,164.95166 Z M132.807129,168.735352 L132.807129,184.647949 C132.807129,187.39015 131.563489,188.76123 129.076172,188.76123 C128.540036,188.76123 128.043459,188.68213 127.586426,188.523926 L127.586426,186.572754 C127.867677,186.643067 128.236814,186.678223 128.693848,186.678223 C129.238772,186.678223 129.654051,186.531007 129.939697,186.236572 C130.225343,185.942137 130.368164,185.430179 130.368164,184.700684 L130.368164,168.735352 L132.807129,168.735352 Z M130.117676,164.95166 C130.117676,164.564939 130.238524,164.233156 130.480225,163.956299 C130.721925,163.679442 131.075681,163.541016 131.541504,163.541016 C132.016116,163.541016 132.376464,163.677245 132.622559,163.949707 C132.868654,164.222169 132.991699,164.55615 132.991699,164.95166 C132.991699,165.34717 132.868654,165.676756 132.622559,165.94043 C132.376464,166.204103 132.016116,166.335938 131.541504,166.335938 C131.066892,166.335938 130.710939,166.204103 130.473633,165.94043 C130.236327,165.676756 130.117676,165.34717 130.117676,164.95166 Z M141.717285,176.39502 L140.187988,177.990234 L140.187988,183 L137.749023,183 L137.749023,162.75 L140.187988,162.75 L140.187988,174.997559 L141.493164,173.428711 L145.936035,168.735352 L148.902344,168.735352 L143.352051,174.694336 L149.54834,183 L146.6875,183 L141.717285,176.39502 Z M155.070312,183 L152.631348,183 L152.631348,162.75 L155.070312,162.75 L155.070312,183 Z M162.266602,168.735352 L162.33252,170.317383 C163.378423,169.086908 164.789054,168.47168 166.564453,168.47168 C168.55958,168.47168 169.917477,169.23632 170.638184,170.765625 C171.112795,170.080075 171.730221,169.526369 172.490479,169.104492 C173.250736,168.682615 174.149409,168.47168 175.186523,168.47168 C178.315445,168.47168 179.90625,170.128401 179.958984,173.441895 L179.958984,183 L177.52002,183 L177.52002,173.586914 C177.52002,172.567378 177.287112,171.804934 176.821289,171.299561 C176.355466,170.794187 175.573248,170.541504 174.474609,170.541504 C173.569331,170.541504 172.817874,170.811765 172.220215,171.352295 C171.622556,171.892825 171.275391,172.620113 171.178711,173.53418 L171.178711,183 L168.726562,183 L168.726562,173.652832 C168.726562,171.578603 167.711436,170.541504 165.681152,170.541504 C164.081535,170.541504 162.987308,171.222649 162.398438,172.584961 L162.398438,183 L159.959473,183 L159.959473,168.735352 L162.266602,168.735352 Z M186.944336,168.735352 L187.023438,170.52832 C188.113287,169.15722 189.537101,168.47168 191.294922,168.47168 C194.309585,168.47168 195.830078,170.172346 195.856445,173.57373 L195.856445,183 L193.41748,183 L193.41748,173.560547 C193.408691,172.532221 193.173586,171.771975 192.712158,171.279785 C192.25073,170.787595 191.532231,170.541504 190.556641,170.541504 C189.765621,170.541504 189.071292,170.752439 188.473633,171.174316 C187.875974,171.596194 187.410158,172.149899 187.076172,172.835449 L187.076172,183 L184.637207,183 L184.637207,168.735352 L186.944336,168.735352 Z M199.888672,175.73584 C199.888672,174.338372 200.163327,173.081549 200.712646,171.965332 C201.261966,170.849116 202.026606,169.987796 203.006592,169.381348 C203.986577,168.774899 205.104974,168.47168 206.361816,168.47168 C208.304209,168.47168 209.875238,169.144036 211.074951,170.48877 C212.274664,171.833503 212.874512,173.622059 212.874512,175.854492 L212.874512,176.025879 C212.874512,177.414558 212.608645,178.660395 212.076904,179.763428 C211.545163,180.866461 210.784917,181.725583 209.796143,182.34082 C208.807368,182.956058 207.671393,183.263672 206.388184,183.263672 C204.45458,183.263672 202.887945,182.591315 201.688232,181.246582 C200.488519,179.901849 199.888672,178.122081 199.888672,175.907227 L199.888672,175.73584 Z M202.34082,176.025879 C202.34082,177.607918 202.70776,178.877925 203.44165,179.835938 C204.175541,180.79395 205.157709,181.272949 206.388184,181.272949 C207.627448,181.272949 208.611813,180.787358 209.341309,179.816162 C210.070804,178.844966 210.435547,177.484872 210.435547,175.73584 C210.435547,174.171379 210.064213,172.903569 209.321533,171.932373 C208.578854,170.961177 207.592291,170.475586 206.361816,170.475586 C205.157709,170.475586 204.186527,170.954585 203.448242,171.912598 C202.709957,172.87061 202.34082,174.24169 202.34082,176.025879 Z M228.98291,176.025879 C228.98291,178.196788 228.486333,179.945794 227.493164,181.272949 C226.499995,182.600104 225.155282,183.263672 223.458984,183.263672 C221.72753,183.263672 220.365239,182.714361 219.37207,181.615723 L219.37207,188.484375 L216.933105,188.484375 L216.933105,168.735352 L219.161133,168.735352 L219.279785,170.317383 C220.272954,169.086908 221.652823,168.47168 223.419434,168.47168 C225.133309,168.47168 226.489009,169.117669 227.486572,170.409668 C228.484136,171.701667 228.98291,173.499012 228.98291,175.801758 L228.98291,176.025879 Z M226.543945,175.749023 C226.543945,174.140617 226.201175,172.87061 225.515625,171.938965 C224.830075,171.00732 223.889654,170.541504 222.694336,170.541504 C221.217766,170.541504 220.110355,171.196283 219.37207,172.505859 L219.37207,179.321777 C220.101566,180.622565 221.217766,181.272949 222.720703,181.272949 C223.889654,181.272949 224.819088,180.809331 225.509033,179.88208 C226.198978,178.954829 226.543945,177.577158 226.543945,175.749023 Z M232.487793,175.749023 C232.487793,173.507801 233.001948,171.734626 234.030273,170.429443 C235.058599,169.124261 236.438468,168.47168 238.169922,168.47168 C239.85743,168.47168 241.18896,169.038569 242.164551,170.172363 L242.27002,168.735352 L244.51123,168.735352 L244.51123,188.484375 L242.072266,188.484375 L242.072266,181.681641 C241.087886,182.736333 239.778328,183.263672 238.143555,183.263672 C236.42089,183.263672 235.047613,182.593513 234.023682,181.253174 C232.999751,179.912835 232.487793,178.135265 232.487793,175.92041 L232.487793,175.749023 Z M234.926758,176.025879 C234.926758,177.660653 235.271725,178.943843 235.96167,179.875488 C236.651615,180.807134 237.581049,181.272949 238.75,181.272949 C240.200203,181.272949 241.307613,180.631354 242.072266,179.348145 L242.072266,172.36084 C241.298824,171.103998 240.200202,170.475586 238.776367,170.475586 C237.598627,170.475586 236.662601,170.943599 235.968262,171.879639 C235.273922,172.815679 234.926758,174.197745 234.926758,176.025879 Z M256.321777,170.923828 C255.952635,170.862304 255.552737,170.831543 255.12207,170.831543 C253.522453,170.831543 252.437015,171.512689 251.865723,172.875 L251.865723,183 L249.426758,183 L249.426758,168.735352 L251.799805,168.735352 L251.839355,170.383301 C252.639164,169.10888 253.772942,168.47168 255.240723,168.47168 C255.715334,168.47168 256.075682,168.533203 256.321777,168.65625 L256.321777,170.923828 Z M267.868652,179.216309 C267.868652,178.557126 267.620364,178.045168 267.123779,177.68042 C266.627195,177.315672 265.761481,177.001466 264.526611,176.737793 C263.291742,176.47412 262.311771,176.157717 261.58667,175.788574 C260.861569,175.419432 260.325441,174.979983 259.978271,174.470215 C259.631102,173.960447 259.45752,173.354007 259.45752,172.650879 C259.45752,171.481928 259.951899,170.493168 260.940674,169.68457 C261.929448,168.875973 263.192863,168.47168 264.730957,168.47168 C266.348153,168.47168 267.659907,168.889156 268.66626,169.724121 C269.672612,170.559086 270.175781,171.626947 270.175781,172.927734 L267.723633,172.927734 C267.723633,172.259762 267.440188,171.684084 266.873291,171.200684 C266.306394,170.717283 265.592289,170.475586 264.730957,170.475586 C263.843257,170.475586 263.148928,170.668943 262.647949,171.055664 C262.14697,171.442385 261.896484,171.947751 261.896484,172.571777 C261.896484,173.160647 262.129392,173.604491 262.595215,173.90332 C263.061037,174.20215 263.902582,174.487792 265.119873,174.760254 C266.337164,175.032716 267.323727,175.357908 268.07959,175.73584 C268.835453,176.113771 269.39575,176.568601 269.760498,177.100342 C270.125246,177.632083 270.307617,178.28027 270.307617,179.044922 C270.307617,180.319342 269.797857,181.341061 268.77832,182.110107 C267.758784,182.879154 266.436043,183.263672 264.810059,183.263672 C263.667475,183.263672 262.656743,183.061525 261.777832,182.657227 C260.898921,182.252928 260.211184,181.688236 259.7146,180.963135 C259.218015,180.238033 258.969727,179.453618 258.969727,178.609863 L261.408691,178.609863 C261.452637,179.42725 261.780026,180.075437 262.390869,180.554443 C263.001712,181.03345 263.8081,181.272949 264.810059,181.272949 C265.732915,181.272949 266.473386,181.086184 267.031494,180.712646 C267.589602,180.339109 267.868652,179.840335 267.868652,179.216309 Z M277.793945,165.28125 L277.793945,168.735352 L280.457031,168.735352 L280.457031,170.620605 L277.793945,170.620605 L277.793945,179.466797 C277.793945,180.038089 277.912596,180.466551 278.149902,180.752197 C278.387208,181.037843 278.791501,181.180664 279.362793,181.180664 C279.644044,181.180664 280.030759,181.12793 280.522949,181.022461 L280.522949,183 C279.881344,183.175782 279.257327,183.263672 278.650879,183.263672 C277.56103,183.263672 276.739261,182.934085 276.185547,182.274902 C275.631833,181.615719 275.35498,180.679694 275.35498,179.466797 L275.35498,170.620605 L272.757812,170.620605 L272.757812,168.735352 L275.35498,168.735352 L275.35498,165.28125 L277.793945,165.28125 Z M293.111328,181.589355 C292.162105,182.705572 290.769052,183.263672 288.932129,183.263672 C287.411613,183.263672 286.253666,182.822026 285.458252,181.938721 C284.662838,181.055416 284.260742,179.748056 284.251953,178.016602 L284.251953,168.735352 L286.690918,168.735352 L286.690918,177.950684 C286.690918,180.112804 287.569815,181.193848 289.327637,181.193848 C291.190927,181.193848 292.430173,180.499519 293.04541,179.11084 L293.04541,168.735352 L295.484375,168.735352 L295.484375,183 L293.164062,183 L293.111328,181.589355 Z M304.895508,179.690918 L308.428711,168.735352 L310.92041,168.735352 L305.805176,183 L303.946289,183 L298.77832,168.735352 L301.27002,168.735352 L304.895508,179.690918 Z M326.896973,179.638184 L329.63916,168.735352 L332.078125,168.735352 L327.925293,183 L325.947754,183 L322.480469,172.189453 L319.105469,183 L317.12793,183 L312.988281,168.735352 L315.414062,168.735352 L318.222168,179.414062 L321.544434,168.735352 L323.508789,168.735352 L326.896973,179.638184 Z M340.342285,173.942871 L343.506348,168.735352 L346.354004,168.735352 L341.687012,175.788574 L346.499023,183 L343.677734,183 L340.381836,177.660645 L337.085938,183 L334.251465,183 L339.063477,175.788574 L334.396484,168.735352 L337.217773,168.735352 L340.342285,173.942871 Z M354.60498,179.427246 L357.927246,168.735352 L360.537598,168.735352 L354.802734,185.20166 C353.915035,187.574719 352.504404,188.76123 350.570801,188.76123 L350.109375,188.72168 L349.199707,188.550293 L349.199707,186.572754 L349.858887,186.625488 C350.685063,186.625488 351.328855,186.458498 351.790283,186.124512 C352.251711,185.790526 352.631834,185.179692 352.930664,184.291992 L353.471191,182.841797 L348.382324,168.735352 L351.04541,168.735352 L354.60498,179.427246 Z M366.006836,181.009277 L374.352051,181.009277 L374.352051,183 L363.027344,183 L363.027344,181.207031 L370.897949,170.752441 L363.145996,170.752441 L363.145996,168.735352 L373.956543,168.735352 L373.956543,170.462402 L366.006836,181.009277 Z M12.8276367,217.990234 L4.78564453,217.990234 L2.97949219,223 L0.369140625,223 L7.69921875,203.804688 L9.9140625,203.804688 L17.2573242,223 L14.6601562,223 L12.8276367,217.990234 Z M5.55029297,215.907227 L12.0761719,215.907227 L8.80664062,206.929199 L5.55029297,215.907227 Z M20.8413086,223 L20.8413086,203.804688 L27.1166992,203.804688 C29.1997174,203.804688 30.7663522,204.235347 31.8166504,205.09668 C32.8669486,205.958012 33.3920898,207.232413 33.3920898,208.919922 C33.3920898,209.816411 33.1372096,210.609616 32.6274414,211.299561 C32.1176732,211.989505 31.4233442,212.523436 30.5444336,212.901367 C31.5815482,213.191408 32.40112,213.742916 33.0031738,214.555908 C33.6052276,215.368901 33.90625,216.337885 33.90625,217.462891 C33.90625,219.185555 33.3481501,220.539058 32.2319336,221.523438 C31.1157171,222.507817 29.5380961,223 27.4990234,223 L20.8413086,223 Z M23.3725586,214.021973 L23.3725586,220.930176 L27.5517578,220.930176 C28.7294981,220.930176 29.6589321,220.624759 30.3400879,220.013916 C31.0212436,219.403073 31.3618164,218.561529 31.3618164,217.489258 C31.3618164,215.177723 30.104993,214.021973 27.5913086,214.021973 L23.3725586,214.021973 Z M23.3725586,211.991699 L27.1958008,211.991699 C28.3032282,211.991699 29.1887174,211.714847 29.8522949,211.161133 C30.5158725,210.607419 30.8476562,209.855962 30.8476562,208.906738 C30.8476562,207.852046 30.5400421,207.085207 29.9248047,206.606201 C29.3095672,206.127195 28.3735414,205.887695 27.1166992,205.887695 L23.3725586,205.887695 L23.3725586,211.991699 Z M52.7700195,216.90918 C52.5327137,218.939463 51.7834536,220.506098 50.5222168,221.609131 C49.26098,222.712164 47.5844831,223.263672 45.4926758,223.263672 C43.2250863,223.263672 41.4079658,222.450692 40.0412598,220.824707 C38.6745537,219.198722 37.9912109,217.023451 37.9912109,214.298828 L37.9912109,212.453125 C37.9912109,210.668936 38.3098113,209.100104 38.9470215,207.746582 C39.5842317,206.39306 40.4872988,205.353763 41.65625,204.628662 C42.8252012,203.903561 44.1787032,203.541016 45.7167969,203.541016 C47.7558696,203.541016 49.3906188,204.110102 50.6210938,205.248291 C51.8515687,206.38648 52.5678701,207.961904 52.7700195,209.974609 L50.2255859,209.974609 C50.0058583,208.445305 49.5290564,207.337894 48.795166,206.652344 C48.0612756,205.966793 47.0351628,205.624023 45.7167969,205.624023 C44.0996013,205.624023 42.8317917,206.221674 41.9133301,207.416992 C40.9948685,208.612311 40.5356445,210.312977 40.5356445,212.519043 L40.5356445,214.37793 C40.5356445,216.460948 40.9706988,218.11767 41.8408203,219.348145 C42.7109419,220.578619 43.9282148,221.193848 45.4926758,221.193848 C46.8989328,221.193848 47.9777794,220.875247 48.729248,220.238037 C49.4807166,219.600827 49.979491,218.491219 50.2255859,216.90918 L52.7700195,216.90918 Z M57.2241211,223 L57.2241211,203.804688 L62.6425781,203.804688 C64.3125083,203.804688 65.7890561,204.173824 67.0722656,204.912109 C68.3554752,205.650394 69.3464321,206.700677 70.045166,208.062988 C70.7439,209.4253 71.0976562,210.989737 71.1064453,212.756348 L71.1064453,213.982422 C71.1064453,215.792978 70.7570836,217.379388 70.0583496,218.741699 C69.3596156,220.104011 68.362067,221.149899 67.0656738,221.879395 C65.7692806,222.60889 64.2597742,222.982422 62.5371094,223 L57.2241211,223 Z M59.7553711,205.887695 L59.7553711,220.930176 L62.418457,220.930176 C64.3696387,220.930176 65.887934,220.323737 66.9733887,219.11084 C68.0588433,217.897943 68.6015625,216.17091 68.6015625,213.929688 L68.6015625,212.809082 C68.6015625,210.629384 68.0896047,208.935309 67.0656738,207.726807 C66.0417429,206.518305 64.5893649,205.905274 62.7084961,205.887695 L59.7553711,205.887695 Z M86.7797852,214.127441 L78.4609375,214.127441 L78.4609375,220.930176 L88.1245117,220.930176 L88.1245117,223 L75.9296875,223 L75.9296875,203.804688 L87.9926758,203.804688 L87.9926758,205.887695 L78.4609375,205.887695 L78.4609375,212.057617 L86.7797852,212.057617 L86.7797852,214.127441 Z M102.861816,214.522949 L94.8066406,214.522949 L94.8066406,223 L92.2753906,223 L92.2753906,203.804688 L104.166992,203.804688 L104.166992,205.887695 L94.8066406,205.887695 L94.8066406,212.453125 L102.861816,212.453125 L102.861816,214.522949 Z M122.371582,220.481934 C121.721188,221.413579 120.813727,222.110105 119.64917,222.571533 C118.484613,223.032961 117.128914,223.263672 115.582031,223.263672 C114.01757,223.263672 112.628912,222.896732 111.416016,222.162842 C110.203119,221.428951 109.264896,220.385261 108.601318,219.031738 C107.937741,217.678216 107.597168,216.109384 107.57959,214.325195 L107.57959,212.650879 C107.57959,209.759263 108.254144,207.518074 109.603271,205.927246 C110.952399,204.336418 112.848621,203.541016 115.291992,203.541016 C117.295908,203.541016 118.908685,204.052973 120.130371,205.076904 C121.352057,206.100835 122.09912,207.553213 122.371582,209.434082 L119.840332,209.434082 C119.36572,206.89403 117.854017,205.624023 115.305176,205.624023 C113.608878,205.624023 112.323491,206.219476 111.448975,207.4104 C110.574459,208.601324 110.132813,210.326161 110.124023,212.584961 L110.124023,214.153809 C110.124023,216.30714 110.616206,218.018792 111.600586,219.288818 C112.584966,220.558844 113.916496,221.193848 115.595215,221.193848 C116.544438,221.193848 117.374996,221.08838 118.086914,220.877441 C118.798832,220.666503 119.387693,220.310549 119.853516,219.80957 L119.853516,215.498535 L115.410645,215.498535 L115.410645,213.441895 L122.371582,213.441895 L122.371582,220.481934 Z M142.342773,223 L139.79834,223 L139.79834,214.127441 L130.121582,214.127441 L130.121582,223 L127.590332,223 L127.590332,203.804688 L130.121582,203.804688 L130.121582,212.057617 L139.79834,212.057617 L139.79834,203.804688 L142.342773,203.804688 L142.342773,223 Z M150.554199,223 L148.022949,223 L148.022949,203.804688 L150.554199,203.804688 L150.554199,223 Z M164.223633,203.804688 L166.768066,203.804688 L166.768066,217.396973 C166.768066,219.233896 166.216558,220.670893 165.113525,221.708008 C164.010493,222.745122 162.540537,223.263672 160.703613,223.263672 C158.796377,223.263672 157.31104,222.775884 156.247559,221.800293 C155.184077,220.824702 154.652344,219.458017 154.652344,217.700195 L157.183594,217.700195 C157.183594,218.798834 157.484616,219.655759 158.08667,220.270996 C158.688724,220.886234 159.561029,221.193848 160.703613,221.193848 C161.749517,221.193848 162.595456,220.864261 163.241455,220.205078 C163.887454,219.545895 164.214844,218.623053 164.223633,217.436523 L164.223633,203.804688 Z M176.957031,214.074707 L174.610352,216.513672 L174.610352,223 L172.079102,223 L172.079102,203.804688 L174.610352,203.804688 L174.610352,213.296875 L183.140137,203.804688 L186.19873,203.804688 L178.644531,212.281738 L186.791992,223 L183.759766,223 L176.957031,214.074707 Z M192.55127,220.930176 L201.647949,220.930176 L201.647949,223 L190.006836,223 L190.006836,203.804688 L192.55127,203.804688 L192.55127,220.930176 Z M208.804688,203.804688 L215.080078,219.466797 L221.355469,203.804688 L224.638184,203.804688 L224.638184,223 L222.106934,223 L222.106934,215.524902 L222.344238,207.456543 L216.04248,223 L214.104492,223 L207.815918,207.496094 L208.066406,215.524902 L208.066406,223 L205.535156,223 L205.535156,203.804688 L208.804688,203.804688 Z M244.859863,223 L242.31543,223 L232.651855,208.208008 L232.651855,223 L230.107422,223 L230.107422,203.804688 L232.651855,203.804688 L242.341797,218.662598 L242.341797,203.804688 L244.859863,203.804688 L244.859863,223 Z M265.121094,214.021973 C265.121094,215.902841 264.804691,217.544182 264.171875,218.946045 C263.539059,220.347907 262.642584,221.417965 261.482422,222.15625 C260.32226,222.894535 258.968758,223.263672 257.421875,223.263672 C255.910149,223.263672 254.56983,222.892338 253.400879,222.149658 C252.231928,221.406979 251.324466,220.347907 250.678467,218.972412 C250.032467,217.596917 249.700684,216.003915 249.683105,214.193359 L249.683105,212.809082 C249.683105,210.96337 250.003903,209.333015 250.645508,207.917969 C251.287113,206.502923 252.194574,205.419681 253.36792,204.668213 C254.541266,203.916744 255.883782,203.541016 257.395508,203.541016 C258.933601,203.541016 260.289301,203.91235 261.462646,204.655029 C262.635992,205.397709 263.539059,206.474358 264.171875,207.88501 C264.804691,209.295661 265.121094,210.937002 265.121094,212.809082 L265.121094,214.021973 Z M262.603027,212.782715 C262.603027,210.506336 262.146001,208.759528 261.231934,207.542236 C260.317867,206.324945 259.039071,205.716309 257.395508,205.716309 C255.79589,205.716309 254.53687,206.324945 253.618408,207.542236 C252.699947,208.759528 252.227539,210.449208 252.201172,212.611328 L252.201172,214.021973 C252.201172,216.228038 252.66479,217.961664 253.592041,219.2229 C254.519292,220.484137 255.79589,221.114746 257.421875,221.114746 C259.056649,221.114746 260.322261,220.519293 261.21875,219.328369 C262.115239,218.137445 262.57666,216.430187 262.603027,214.206543 L262.603027,212.782715 Z M272.449219,215.485352 L272.449219,223 L269.917969,223 L269.917969,203.804688 L276.997559,203.804688 C279.098155,203.804688 280.743891,204.340815 281.934814,205.413086 C283.125738,206.485357 283.721191,207.904776 283.721191,209.671387 C283.721191,211.534677 283.138922,212.969477 281.974365,213.97583 C280.809809,214.982183 279.142101,215.485352 276.971191,215.485352 L272.449219,215.485352 Z M272.449219,213.415527 L276.997559,213.415527 C278.351081,213.415527 279.38818,213.096927 280.108887,212.459717 C280.829593,211.822507 281.189941,210.901861 281.189941,209.697754 C281.189941,208.55517 280.829593,207.641117 280.108887,206.955566 C279.38818,206.270016 278.39942,205.914063 277.142578,205.887695 L272.449219,205.887695 L272.449219,213.415527 Z M302.611328,214.021973 C302.611328,215.876474 302.316897,217.47387 301.728027,218.814209 C301.139157,220.154548 300.312994,221.202633 299.249512,221.958496 L302.677246,224.647949 L300.950195,226.243164 L296.902832,223.026367 C296.270016,223.184571 295.602054,223.263672 294.898926,223.263672 C293.387199,223.263672 292.046881,222.892338 290.87793,222.149658 C289.708979,221.406979 288.801517,220.347907 288.155518,218.972412 C287.509518,217.596917 287.177734,216.003915 287.160156,214.193359 L287.160156,212.809082 C287.160156,210.96337 287.480954,209.333015 288.122559,207.917969 C288.764163,206.502923 289.671625,205.419681 290.844971,204.668213 C292.018316,203.916744 293.360832,203.541016 294.872559,203.541016 C296.419441,203.541016 297.779535,203.914547 298.952881,204.661621 C300.126227,205.408695 301.029294,206.483147 301.662109,207.88501 C302.294925,209.286872 302.611328,210.923819 302.611328,212.795898 L302.611328,214.021973 Z M300.080078,212.782715 C300.080078,210.523914 299.629643,208.7815 298.72876,207.55542 C297.827876,206.32934 296.542489,205.716309 294.872559,205.716309 C293.28173,205.716309 292.027104,206.324945 291.108643,207.542236 C290.190181,208.759528 289.717774,210.449208 289.691406,212.611328 L289.691406,214.021973 C289.691406,216.219249 290.15063,217.950677 291.069092,219.216309 C291.987553,220.48194 293.264152,221.114746 294.898926,221.114746 C296.5337,221.114746 297.799312,220.519293 298.695801,219.328369 C299.59229,218.137445 300.053711,216.430187 300.080078,214.206543 L300.080078,212.782715 Z M314.553711,215.234863 L310.044922,215.234863 L310.044922,223 L307.500488,223 L307.500488,203.804688 L313.85498,203.804688 C316.017101,203.804688 317.680414,204.29687 318.844971,205.28125 C320.009527,206.26563 320.591797,207.698233 320.591797,209.579102 C320.591797,210.77442 320.268802,211.815914 319.622803,212.703613 C318.976803,213.591313 318.078131,214.254881 316.926758,214.694336 L321.435547,222.841797 L321.435547,223 L318.719727,223 L314.553711,215.234863 Z M310.044922,213.165039 L313.934082,213.165039 C315.190924,213.165039 316.19067,212.839847 316.93335,212.189453 C317.676029,211.539059 318.047363,210.668951 318.047363,209.579102 C318.047363,208.392572 317.693607,207.482913 316.986084,206.850098 C316.278561,206.217282 315.256843,205.896484 313.920898,205.887695 L310.044922,205.887695 L310.044922,213.165039 Z M330.793945,214.443848 C328.623036,213.819821 327.043218,213.052983 326.054443,212.143311 C325.065669,211.233638 324.571289,210.110847 324.571289,208.774902 C324.571289,207.263176 325.175531,206.012944 326.384033,205.02417 C327.592535,204.035395 329.163565,203.541016 331.097168,203.541016 C332.415534,203.541016 333.591059,203.795896 334.623779,204.305664 C335.656499,204.815432 336.456296,205.51855 337.023193,206.415039 C337.590091,207.311528 337.873535,208.291499 337.873535,209.35498 L335.329102,209.35498 C335.329102,208.194818 334.959965,207.282962 334.22168,206.619385 C333.483395,205.955807 332.441901,205.624023 331.097168,205.624023 C329.849115,205.624023 328.875736,205.898679 328.177002,206.447998 C327.478268,206.997317 327.128906,207.759761 327.128906,208.735352 C327.128906,209.517582 327.46069,210.178952 328.124268,210.719482 C328.787845,211.260012 329.917228,211.754392 331.512451,212.202637 C333.107674,212.650881 334.355708,213.145261 335.256592,213.685791 C336.157475,214.226321 336.825437,214.85693 337.260498,215.577637 C337.695559,216.298343 337.913086,217.146479 337.913086,218.12207 C337.913086,219.677742 337.306647,220.923579 336.09375,221.859619 C334.880853,222.795659 333.259287,223.263672 331.229004,223.263672 C329.910638,223.263672 328.680181,223.010989 327.537598,222.505615 C326.395014,222.000242 325.513919,221.30811 324.894287,220.429199 C324.274655,219.550289 323.964844,218.55274 323.964844,217.436523 L326.509277,217.436523 C326.509277,218.596685 326.93774,219.512936 327.794678,220.185303 C328.651616,220.857669 329.79638,221.193848 331.229004,221.193848 C332.564948,221.193848 333.588864,220.921389 334.300781,220.376465 C335.012699,219.83154 335.368652,219.088872 335.368652,218.148438 C335.368652,217.208003 335.039066,216.480715 334.379883,215.966553 C333.7207,215.45239 332.525399,214.944827 330.793945,214.443848 Z M355.418945,205.887695 L349.249023,205.887695 L349.249023,223 L346.730957,223 L346.730957,205.887695 L340.574219,205.887695 L340.574219,203.804688 L355.418945,203.804688 L355.418945,205.887695 Z M372.779785,203.804688 L372.779785,216.856445 C372.770996,218.667001 372.20191,220.147943 371.07251,221.299316 C369.94311,222.450689 368.411631,223.096679 366.478027,223.237305 L365.805664,223.263672 C363.705068,223.263672 362.030768,222.696783 360.782715,221.562988 C359.534662,220.429194 358.901856,218.869151 358.884277,216.882812 L358.884277,203.804688 L361.38916,203.804688 L361.38916,216.803711 C361.38916,218.19239 361.771481,219.271236 362.536133,220.040283 C363.300785,220.80933 364.390618,221.193848 365.805664,221.193848 C367.238288,221.193848 368.334713,220.811527 369.094971,220.046875 C369.855228,219.282223 370.235352,218.205573 370.235352,216.816895 L370.235352,203.804688 L372.779785,203.804688 Z M384.128906,219.638184 L389.613281,203.804688 L392.381836,203.804688 L385.262695,223 L383.021484,223 L375.915527,203.804688 L378.670898,203.804688 L384.128906,219.638184 Z M400.092285,216.94873 L400.461426,219.47998 L401.001953,217.199219 L404.798828,203.804688 L406.93457,203.804688 L410.63916,217.199219 L411.166504,219.519531 L411.575195,216.935547 L414.554688,203.804688 L417.099121,203.804688 L412.445312,223 L410.138184,223 L406.183105,209.012207 L405.879883,207.548828 L405.57666,209.012207 L401.476562,223 L399.169434,223 L394.528809,203.804688 L397.060059,203.804688 L400.092285,216.94873 Z M427.169434,211.161133 L431.770508,203.804688 L434.75,203.804688 L428.685547,213.323242 L434.89502,223 L431.88916,223 L427.169434,215.511719 L422.42334,223 L419.430664,223 L425.65332,213.323242 L419.575684,203.804688 L422.541992,203.804688 L427.169434,211.161133 Z M444.688477,213.441895 L449.698242,203.804688 L452.572266,203.804688 L445.954102,215.841309 L445.954102,223 L443.422852,223 L443.422852,215.841309 L436.804688,203.804688 L439.705078,203.804688 L444.688477,213.441895 Z M457.949219,220.930176 L468.931152,220.930176 L468.931152,223 L454.956543,223 L454.956543,221.101562 L465.477051,205.887695 L455.12793,205.887695 L455.12793,203.804688 L468.509277,203.804688 L468.509277,205.663574 L457.949219,220.930176 Z M13.6318359,254.812988 C13.6318359,257.669448 13.1440478,259.791985 12.168457,261.180664 C11.1928662,262.569343 9.66797912,263.263672 7.59375,263.263672 C5.5458882,263.263672 4.02979008,262.584724 3.04541016,261.226807 C2.06103023,259.86889 1.55126971,257.840834 1.51611328,255.142578 L1.51611328,251.88623 C1.51611328,249.064927 2.00390137,246.968757 2.97949219,245.597656 C3.955083,244.226556 5.48436458,243.541016 7.56738281,243.541016 C9.63282283,243.541016 11.1533154,244.202386 12.1289062,245.525146 C13.1044971,246.847907 13.6054686,248.889146 13.6318359,251.648926 L13.6318359,254.812988 Z M11.1928711,251.477539 C11.1928711,249.412099 10.9028349,247.906987 10.3227539,246.962158 C9.74267288,246.017329 8.82422503,245.544922 7.56738281,245.544922 C6.3193297,245.544922 5.40967083,246.015132 4.83837891,246.955566 C4.26708699,247.896001 3.97265634,249.341787 3.95507812,251.292969 L3.95507812,255.195312 C3.95507812,257.269542 4.25610051,258.80102 4.8581543,259.789795 C5.46020809,260.778569 6.3720642,261.272949 7.59375,261.272949 C8.79785758,261.272949 9.69213575,260.807134 10.2766113,259.875488 C10.8610869,258.943843 11.1665038,257.476084 11.1928711,255.472168 L11.1928711,251.477539 Z M25.7719727,263 L23.3198242,263 L23.3198242,246.744629 L18.4023438,248.550781 L18.4023438,246.335938 L25.3896484,243.712402 L25.7719727,243.712402 L25.7719727,263 Z M46.4946289,263 L33.9174805,263 L33.9174805,261.246582 L40.5620117,253.86377 C41.5463916,252.747553 42.2253399,251.840091 42.598877,251.141357 C42.972414,250.442623 43.1591797,249.71973 43.1591797,248.972656 C43.1591797,247.970698 42.8559601,247.148929 42.2495117,246.507324 C41.6430634,245.865719 40.8344777,245.544922 39.8237305,245.544922 C38.6108338,245.544922 37.6682163,245.889889 36.9958496,246.579834 C36.323483,247.269779 35.9873047,248.229974 35.9873047,249.460449 L33.5483398,249.460449 C33.5483398,247.693839 34.1174259,246.26563 35.2556152,245.175781 C36.3938045,244.085932 37.9164944,243.541016 39.8237305,243.541016 C41.6079191,243.541016 43.0185495,244.009029 44.0556641,244.945068 C45.0927786,245.881108 45.6113281,247.126945 45.6113281,248.682617 C45.6113281,250.572275 44.4072386,252.822253 41.9990234,255.432617 L36.8574219,261.009277 L46.4946289,261.009277 L46.4946289,263 Z M53.625,252.21582 L55.4575195,252.21582 C56.6088925,252.198242 57.5141569,251.895022 58.1733398,251.306152 C58.8325228,250.717282 59.1621094,249.92188 59.1621094,248.919922 C59.1621094,246.669911 58.0415151,245.544922 55.800293,245.544922 C54.7456002,245.544922 53.9040559,245.845944 53.2756348,246.447998 C52.6472137,247.050052 52.3330078,247.847651 52.3330078,248.84082 L49.894043,248.84082 C49.894043,247.320305 50.4499456,246.05689 51.5617676,245.050537 C52.6735895,244.044184 54.0864172,243.541016 55.800293,243.541016 C57.6108489,243.541016 59.0302683,244.020015 60.0585938,244.978027 C61.0869192,245.93604 61.6010742,247.26757 61.6010742,248.972656 C61.6010742,249.807621 61.3308132,250.616207 60.7902832,251.398438 C60.2497532,252.180668 59.5136765,252.765135 58.5820312,253.151855 C59.636724,253.485842 60.4519014,254.039547 61.0275879,254.812988 C61.6032744,255.58643 61.8911133,256.531244 61.8911133,257.647461 C61.8911133,259.370126 61.3286189,260.736811 60.2036133,261.747559 C59.0786077,262.758306 57.6152434,263.263672 55.8134766,263.263672 C54.0117097,263.263672 52.5461482,262.775884 51.416748,261.800293 C50.2873479,260.824702 49.7226562,259.537117 49.7226562,257.9375 L52.1748047,257.9375 C52.1748047,258.948247 52.5043912,259.756833 53.1635742,260.363281 C53.8227572,260.96973 54.7060492,261.272949 55.8134766,261.272949 C56.9912168,261.272949 57.8920867,260.965335 58.5161133,260.350098 C59.1401398,259.73486 59.4521484,258.851568 59.4521484,257.700195 C59.4521484,256.583979 59.1093784,255.727054 58.4238281,255.129395 C57.7382778,254.531735 56.7495182,254.224121 55.4575195,254.206543 L53.625,254.206543 L53.625,252.21582 Z M76.5361328,256.553223 L79.1992188,256.553223 L79.1992188,258.543945 L76.5361328,258.543945 L76.5361328,263 L74.0839844,263 L74.0839844,258.543945 L65.3432617,258.543945 L65.3432617,257.106934 L73.9389648,243.804688 L76.5361328,243.804688 L76.5361328,256.553223 Z M68.1118164,256.553223 L74.0839844,256.553223 L74.0839844,247.140137 L73.7939453,247.66748 L68.1118164,256.553223 Z M83.5214844,253.375977 L84.4970703,243.804688 L94.3320312,243.804688 L94.3320312,246.059082 L86.5668945,246.059082 L85.9868164,251.292969 C86.9272508,250.739255 87.9951112,250.462402 89.1904297,250.462402 C90.9394619,250.462402 92.3281199,251.040277 93.3564453,252.196045 C94.3847708,253.351812 94.8989258,254.914053 94.8989258,256.882812 C94.8989258,258.860361 94.3649956,260.418207 93.2971191,261.556396 C92.2292427,262.694586 90.7373143,263.263672 88.8212891,263.263672 C87.1249915,263.263672 85.740728,262.793462 84.668457,261.853027 C83.596186,260.912593 82.9853523,259.611825 82.8359375,257.950684 L85.1430664,257.950684 C85.2924812,259.049322 85.6835906,259.877683 86.3164062,260.435791 C86.9492219,260.993899 87.7841745,261.272949 88.8212891,261.272949 C89.9550838,261.272949 90.8449675,260.886234 91.4909668,260.112793 C92.1369661,259.339352 92.4599609,258.271491 92.4599609,256.90918 C92.4599609,255.62597 92.1105992,254.595463 91.4118652,253.817627 C90.7131313,253.039791 89.7836972,252.650879 88.6235352,252.650879 C87.5600533,252.650879 86.7251007,252.883787 86.1186523,253.349609 L85.4726562,253.876953 L83.5214844,253.375977 Z M108.133301,243.791504 L108.133301,245.861328 L107.685059,245.861328 C105.786612,245.896485 104.274908,246.458979 103.149902,247.548828 C102.024897,248.638677 101.374513,250.172353 101.19873,252.149902 C102.209478,250.98974 103.589347,250.409668 105.338379,250.409668 C107.008309,250.409668 108.342036,250.998529 109.3396,252.17627 C110.337163,253.35401 110.835938,254.874502 110.835938,256.737793 C110.835938,258.715342 110.297613,260.297357 109.220947,261.483887 C108.144282,262.670416 106.700693,263.263672 104.890137,263.263672 C103.053213,263.263672 101.563482,262.558357 100.420898,261.147705 C99.2783146,259.737053 98.7070312,257.919933 98.7070312,255.696289 L98.7070312,254.760254 C98.7070312,251.227033 99.4606858,248.526621 100.968018,246.658936 C102.475349,244.79125 104.718735,243.835449 107.698242,243.791504 L108.133301,243.791504 Z M104.929688,252.439941 C104.094722,252.439941 103.325687,252.690427 102.622559,253.191406 C101.91943,253.692385 101.431642,254.320797 101.15918,255.07666 L101.15918,255.973145 C101.15918,257.555184 101.515133,258.829585 102.227051,259.796387 C102.938968,260.763188 103.826655,261.246582 104.890137,261.246582 C105.988775,261.246582 106.852292,260.842289 107.480713,260.033691 C108.109134,259.225094 108.42334,258.166022 108.42334,256.856445 C108.42334,255.538079 108.10474,254.472416 107.467529,253.659424 C106.830319,252.846431 105.98438,252.439941 104.929688,252.439941 Z M127.115723,245.175781 L119.166016,263 L116.608398,263 L124.531738,245.808594 L114.143066,245.808594 L114.143066,243.804688 L127.115723,243.804688 L127.115723,245.175781 Z M142.525391,248.814453 C142.525391,249.772466 142.272708,250.624996 141.767334,251.37207 C141.26196,252.119144 140.578618,252.703611 139.717285,253.125488 C140.719243,253.556154 141.512448,254.184566 142.096924,255.010742 C142.681399,255.836918 142.973633,256.772944 142.973633,257.818848 C142.973633,259.479989 142.413336,260.802729 141.292725,261.787109 C140.172114,262.771489 138.697763,263.263672 136.869629,263.263672 C135.023917,263.263672 133.545172,262.769292 132.43335,261.780518 C131.321528,260.791743 130.765625,259.4712 130.765625,257.818848 C130.765625,256.781733 131.049069,255.845707 131.615967,255.010742 C132.182864,254.175777 132.96728,253.542971 133.969238,253.112305 C133.116695,252.690428 132.444338,252.105961 131.952148,251.358887 C131.459958,250.611813 131.213867,249.763677 131.213867,248.814453 C131.213867,247.197258 131.732417,245.914067 132.769531,244.964844 C133.806646,244.01562 135.173331,243.541016 136.869629,243.541016 C138.557137,243.541016 139.921626,244.01562 140.963135,244.964844 C142.004644,245.914067 142.525391,247.197258 142.525391,248.814453 Z M140.534668,257.766113 C140.534668,256.693842 140.194095,255.819339 139.512939,255.142578 C138.831784,254.465817 137.9419,254.127441 136.843262,254.127441 C135.744623,254.127441 134.863529,254.461422 134.199951,255.129395 C133.536374,255.797367 133.20459,256.676264 133.20459,257.766113 C133.20459,258.855962 133.527585,259.712888 134.173584,260.336914 C134.819583,260.960941 135.718256,261.272949 136.869629,261.272949 C138.012213,261.272949 138.908688,260.958743 139.559082,260.330322 C140.209476,259.701901 140.534668,258.847173 140.534668,257.766113 Z M136.869629,245.544922 C135.911616,245.544922 135.135989,245.84155 134.542725,246.434814 C133.94946,247.028079 133.652832,247.834468 133.652832,248.854004 C133.652832,249.829595 133.945065,250.618405 134.529541,251.220459 C135.114017,251.822513 135.894038,252.123535 136.869629,252.123535 C137.84522,252.123535 138.625241,251.822513 139.209717,251.220459 C139.794192,250.618405 140.086426,249.829595 140.086426,248.854004 C140.086426,247.878413 139.783206,247.083011 139.176758,246.467773 C138.570309,245.852536 137.801274,245.544922 136.869629,245.544922 Z M156.392578,254.5625 C155.88281,255.168948 155.274173,255.656736 154.56665,256.025879 C153.859127,256.395021 153.0835,256.57959 152.239746,256.57959 C151.132319,256.57959 150.167729,256.307132 149.345947,255.762207 C148.524166,255.217282 147.889162,254.450444 147.440918,253.46167 C146.992674,252.472895 146.768555,251.380865 146.768555,250.185547 C146.768555,248.902337 147.012449,247.746587 147.500244,246.718262 C147.98804,245.689936 148.680171,244.903323 149.57666,244.358398 C150.473149,243.813474 151.519037,243.541016 152.714355,243.541016 C154.612802,243.541016 156.109125,244.250725 157.203369,245.670166 C158.297613,247.089607 158.844727,249.025378 158.844727,251.477539 L158.844727,252.189453 C158.844727,255.924823 158.106453,258.651603 156.629883,260.369873 C155.153313,262.088143 152.925308,262.969238 149.945801,263.013184 L149.471191,263.013184 L149.471191,260.956543 L149.985352,260.956543 C151.998057,260.921387 153.544916,260.396245 154.625977,259.381104 C155.707037,258.365962 156.295898,256.759777 156.392578,254.5625 Z M152.635254,254.5625 C153.452641,254.5625 154.206295,254.312014 154.89624,253.811035 C155.586185,253.310056 156.089354,252.690433 156.405762,251.952148 L156.405762,250.976562 C156.405762,249.376945 156.058597,248.076177 155.364258,247.074219 C154.669918,246.072261 153.791021,245.571289 152.727539,245.571289 C151.655268,245.571289 150.793949,245.982174 150.143555,246.803955 C149.493161,247.625737 149.167969,248.708978 149.167969,250.053711 C149.167969,251.363288 149.482175,252.442134 150.110596,253.290283 C150.739017,254.138432 151.580561,254.5625 152.635254,254.5625 Z M172.896484,258.056152 C172.896484,257.247555 172.61304,256.566409 172.046143,256.012695 C171.479245,255.458982 170.523444,254.95801 169.178711,254.509766 C167.306631,253.938474 165.942143,253.193608 165.085205,252.275146 C164.228267,251.356685 163.799805,250.189948 163.799805,248.774902 C163.799805,247.333489 164.219478,246.151372 165.058838,245.228516 C165.898198,244.305659 167.05175,243.756349 168.519531,243.580566 L168.519531,240.693359 L170.483887,240.693359 L170.483887,243.59375 C171.960457,243.795899 173.109615,244.415522 173.931396,245.452637 C174.753178,246.489751 175.164062,247.909171 175.164062,249.710938 L172.738281,249.710938 C172.738281,248.471673 172.443851,247.487308 171.85498,246.757812 C171.26611,246.028317 170.470708,245.663574 169.46875,245.663574 C168.422846,245.663574 167.62305,245.933835 167.069336,246.474365 C166.515622,247.014895 166.23877,247.76855 166.23877,248.735352 C166.23877,249.63184 166.531003,250.345945 167.115479,250.877686 C167.699954,251.409426 168.662347,251.89282 170.002686,252.327881 C171.343024,252.762942 172.388912,253.241941 173.140381,253.764893 C173.891849,254.287844 174.445555,254.896481 174.801514,255.59082 C175.157472,256.28516 175.335449,257.09814 175.335449,258.029785 C175.335449,259.515144 174.889409,260.710445 173.997314,261.615723 C173.10522,262.521001 171.854989,263.057128 170.246582,263.224121 L170.246582,265.742188 L168.29541,265.742188 L168.29541,263.224121 C166.660636,263.074706 165.379643,262.492437 164.452393,261.477295 C163.525142,260.462153 163.061523,259.084481 163.061523,257.344238 L165.500488,257.344238 C165.500488,258.565924 165.821286,259.506344 166.462891,260.165527 C167.104495,260.82471 168.014154,261.154297 169.191895,261.154297 C170.343267,261.154297 171.248532,260.877444 171.907715,260.32373 C172.566898,259.770017 172.896484,259.014165 172.896484,258.056152 Z M179.156738,247.496094 C179.156738,246.344721 179.523678,245.395512 180.257568,244.648438 C180.991459,243.901363 181.934076,243.527832 183.085449,243.527832 C184.2544,243.527832 185.201412,243.903561 185.926514,244.655029 C186.651615,245.406498 187.01416,246.379877 187.01416,247.575195 L187.01416,248.51123 C187.01416,249.671393 186.64722,250.618405 185.91333,251.352295 C185.17944,252.086185 184.245611,252.453125 183.111816,252.453125 C181.969233,252.453125 181.024418,252.086185 180.277344,251.352295 C179.53027,250.618405 179.156738,249.640631 179.156738,248.418945 L179.156738,247.496094 Z M180.976074,248.51123 C180.976074,249.196781 181.169432,249.761472 181.556152,250.205322 C181.942873,250.649172 182.461423,250.871094 183.111816,250.871094 C183.735843,250.871094 184.239012,250.655764 184.621338,250.225098 C185.003664,249.794431 185.194824,249.20557 185.194824,248.458496 L185.194824,247.496094 C185.194824,246.810543 185.005861,246.243655 184.62793,245.79541 C184.249998,245.347166 183.735843,245.123047 183.085449,245.123047 C182.435055,245.123047 181.9209,245.347166 181.542969,245.79541 C181.165037,246.243655 180.976074,246.828121 180.976074,247.548828 L180.976074,248.51123 Z M188.503906,258.293457 C188.503906,257.142084 188.870846,256.195072 189.604736,255.452393 C190.338627,254.709713 191.281244,254.338379 192.432617,254.338379 C193.58399,254.338379 194.528805,254.707516 195.26709,255.445801 C196.005375,256.184086 196.374512,257.164056 196.374512,258.385742 L196.374512,259.321777 C196.374512,260.47315 196.007572,261.420162 195.273682,262.162842 C194.539791,262.905521 193.601568,263.276855 192.458984,263.276855 C191.316401,263.276855 190.371586,262.909916 189.624512,262.176025 C188.877438,261.442135 188.503906,260.464362 188.503906,259.242676 L188.503906,258.293457 Z M190.323242,259.321777 C190.323242,260.016117 190.5166,260.585203 190.90332,261.029053 C191.290041,261.472903 191.80859,261.694824 192.458984,261.694824 C193.0918,261.694824 193.597166,261.477297 193.975098,261.042236 C194.353029,260.607176 194.541992,260.016117 194.541992,259.269043 L194.541992,258.293457 C194.541992,257.599118 194.350832,257.032229 193.968506,256.592773 C193.58618,256.153318 193.074222,255.933594 192.432617,255.933594 C191.808591,255.933594 191.301027,256.151121 190.909912,256.586182 C190.518797,257.021242 190.323242,257.607906 190.323242,258.346191 L190.323242,259.321777 Z M183.665527,261.549805 L182.28125,260.679688 L191.654785,245.676758 L193.039062,246.546875 L183.665527,261.549805 Z M199.879395,257.845215 C199.879395,256.922359 200.136472,256.074223 200.650635,255.300781 C201.164797,254.52734 202.146965,253.62647 203.597168,252.598145 C202.744625,251.56103 202.173341,250.726077 201.883301,250.093262 C201.59326,249.460446 201.448242,248.832034 201.448242,248.208008 C201.448242,246.749016 201.878902,245.606449 202.740234,244.780273 C203.601567,243.954097 204.7705,243.541016 206.24707,243.541016 C207.565436,243.541016 208.655269,243.925533 209.516602,244.69458 C210.377934,245.463627 210.808594,246.432611 210.808594,247.601562 C210.808594,248.375004 210.613039,249.089108 210.221924,249.743896 C209.830809,250.398685 209.147466,251.086422 208.171875,251.807129 L206.76123,252.848633 L211.032715,257.950684 C211.630374,256.8081 211.929199,255.538093 211.929199,254.140625 L214.130859,254.140625 C214.130859,256.381847 213.590337,258.240715 212.509277,259.717285 L215.251465,263 L212.324707,263 L211.045898,261.483887 C210.395505,262.063968 209.633061,262.505614 208.758545,262.808838 C207.884029,263.112062 206.994145,263.263672 206.088867,263.263672 C204.216788,263.263672 202.713873,262.767095 201.580078,261.773926 C200.446283,260.780757 199.879395,259.4712 199.879395,257.845215 Z M206.088867,261.272949 C207.380866,261.272949 208.562983,260.780767 209.635254,259.796387 L204.955078,254.193359 L204.52002,254.509766 C203.052239,255.590826 202.318359,256.702631 202.318359,257.845215 C202.318359,258.882329 202.654538,259.712888 203.326904,260.336914 C203.999271,260.960941 204.919916,261.272949 206.088867,261.272949 Z M203.887207,248.128906 C203.887207,248.97266 204.405757,250.027337 205.442871,251.292969 L206.998535,250.19873 C207.596194,249.776853 208.004882,249.374758 208.224609,248.992432 C208.444337,248.610106 208.554199,248.146487 208.554199,247.601562 C208.554199,247.012692 208.334475,246.522707 207.89502,246.131592 C207.455564,245.740477 206.901859,245.544922 206.233887,245.544922 C205.51318,245.544922 204.941897,245.788816 204.52002,246.276611 C204.098142,246.764407 203.887207,247.381832 203.887207,248.128906 Z M239.243652,256.381836 C239.138183,258.5088 238.610845,260.187494 237.661621,261.417969 C236.712398,262.648444 235.442391,263.263672 233.851562,263.263672 C232.208,263.263672 231.153323,262.525398 230.6875,261.048828 C230.212888,261.795902 229.670169,262.351805 229.059326,262.716553 C228.448483,263.081301 227.817874,263.263672 227.16748,263.263672 C225.919427,263.263672 224.974613,262.753911 224.333008,261.734375 C223.691403,260.714839 223.454101,259.304208 223.621094,257.502441 C223.75293,256.052239 224.084714,254.758062 224.616455,253.619873 C225.148196,252.481684 225.833736,251.587406 226.673096,250.937012 C227.512455,250.286618 228.39355,249.961426 229.316406,249.961426 C230.028324,249.961426 230.665525,250.055907 231.228027,250.244873 C231.79053,250.433839 232.423336,250.805173 233.126465,251.358887 L232.440918,258.662598 C232.273925,260.692881 232.836419,261.708008 234.128418,261.708008 C235.121587,261.708008 235.925778,261.215825 236.541016,260.231445 C237.156253,259.247065 237.490234,257.963875 237.542969,256.381836 C237.709962,252.962874 237.074958,250.356943 235.637939,248.563965 C234.200921,246.770987 232.014663,245.874512 229.079102,245.874512 C227.312491,245.874512 225.743659,246.311763 224.372559,247.186279 C223.001458,248.060795 221.920414,249.32421 221.129395,250.976562 C220.338375,252.628915 219.894532,254.536122 219.797852,256.698242 C219.692382,258.877941 219.956052,260.769767 220.588867,262.373779 C221.221683,263.977791 222.186273,265.203853 223.482666,266.052002 C224.779059,266.900151 226.345694,267.324219 228.182617,267.324219 C228.973637,267.324219 229.766842,267.22754 230.562256,267.03418 C231.35767,266.840819 232.01904,266.590334 232.546387,266.282715 L233.03418,267.798828 C232.489255,268.141603 231.766362,268.42285 230.865479,268.642578 C229.964595,268.862306 229.052739,268.972168 228.129883,268.972168 C225.932606,268.972168 224.042977,268.477788 222.460938,267.489014 C220.878898,266.500239 219.694584,265.076425 218.907959,263.217529 C218.121334,261.358633 217.780761,259.185559 217.88623,256.698242 C217.9917,254.281238 218.532222,252.108164 219.507812,250.178955 C220.483403,248.249746 221.806144,246.760015 223.476074,245.709717 C225.146004,244.659419 227.031239,244.134277 229.131836,244.134277 C231.320323,244.134277 233.19677,244.62646 234.76123,245.61084 C236.325691,246.59522 237.490231,248.014639 238.254883,249.869141 C239.019535,251.723642 239.349122,253.894519 239.243652,256.381836 Z M225.717285,257.502441 C225.594238,258.750495 225.710692,259.708493 226.06665,260.376465 C226.422609,261.044437 226.987301,261.378418 227.760742,261.378418 C228.288089,261.378418 228.795652,261.154299 229.283447,260.706055 C229.771243,260.25781 230.173338,259.616215 230.489746,258.78125 L230.50293,258.662598 L231.109375,252.03125 C230.617185,251.776366 230.089847,251.648926 229.527344,251.648926 C228.499018,251.648926 227.648685,252.17187 226.976318,253.217773 C226.303952,254.263677 225.884278,255.691885 225.717285,257.502441 Z M245.134766,242.499512 L246.532227,243.44873 C245.71484,244.564947 245.292969,245.769037 245.266602,247.061035 L245.266602,248.854004 L242.84082,248.854004 L242.84082,247.324707 C242.84082,246.428218 243.053953,245.540532 243.480225,244.661621 C243.906496,243.78271 244.458004,243.062015 245.134766,242.499512 Z M252.317871,250.040527 L248.336426,248.854004 L248.942871,246.863281 L252.924316,248.339844 L252.805664,243.804688 L254.822754,243.804688 L254.690918,248.405762 L258.606445,246.955566 L259.212891,248.959473 L255.165527,250.15918 L257.775879,253.731934 L256.141113,254.971191 L253.688965,251.174316 L251.315918,254.878906 L249.667969,253.679199 L252.317871,250.040527 Z M262.348633,255.208496 C262.348633,253.222158 262.614499,251.314951 263.14624,249.486816 C263.677981,247.658682 264.471186,245.997566 265.525879,244.503418 C266.580572,243.00927 267.674799,241.954593 268.808594,241.339355 L269.30957,242.947754 C268.026361,243.932134 266.973881,245.435048 266.1521,247.456543 C265.330318,249.478037 264.879883,251.741198 264.800781,254.246094 L264.787598,255.366699 C264.787598,258.759294 265.40722,261.703601 266.646484,264.199707 C267.393558,265.693855 268.281245,266.862789 269.30957,267.706543 L268.808594,269.196289 C267.639643,268.545895 266.523443,267.456062 265.459961,265.926758 C263.385732,262.938462 262.348633,259.365743 262.348633,255.208496 Z M272.590332,266.823242 L271.206055,265.874023 C272.032231,264.72265 272.46289,263.536139 272.498047,262.314453 L272.498047,260.112793 L274.884277,260.112793 L274.884277,262.024414 C274.884277,262.912114 274.66675,263.7998 274.231689,264.6875 C273.796629,265.5752 273.249515,266.287107 272.590332,266.823242 Z M279.021973,261.721191 C279.021973,261.299314 279.147216,260.947755 279.397705,260.666504 C279.648195,260.385252 280.023923,260.244629 280.524902,260.244629 C281.025881,260.244629 281.406005,260.385252 281.665283,260.666504 C281.924562,260.947755 282.054199,261.299314 282.054199,261.721191 C282.054199,262.12549 281.924562,262.463866 281.665283,262.736328 C281.406005,263.00879 281.025881,263.14502 280.524902,263.14502 C280.023923,263.14502 279.648195,263.00879 279.397705,262.736328 C279.147216,262.463866 279.021973,262.12549 279.021973,261.721191 Z M286.692871,250.080078 C286.692871,249.658201 286.818114,249.306642 287.068604,249.025391 C287.319093,248.744139 287.694822,248.603516 288.195801,248.603516 C288.69678,248.603516 289.076903,248.744139 289.336182,249.025391 C289.59546,249.306642 289.725098,249.658201 289.725098,250.080078 C289.725098,250.484377 289.59546,250.822753 289.336182,251.095215 C289.076903,251.367677 288.69678,251.503906 288.195801,251.503906 C287.694822,251.503906 287.319093,251.367677 287.068604,251.095215 C286.818114,250.822753 286.692871,250.484377 286.692871,250.080078 Z M287.154297,266.823242 L285.77002,265.874023 C286.596196,264.72265 287.026855,263.536139 287.062012,262.314453 L287.062012,260.112793 L289.448242,260.112793 L289.448242,262.024414 C289.448242,262.912114 289.230715,263.7998 288.795654,264.6875 C288.360594,265.5752 287.81348,266.287107 287.154297,266.823242 Z M302.023438,257.594727 L298.542969,257.594727 L297.488281,263 L295.603027,263 L296.657715,257.594727 L293.506836,257.594727 L293.506836,255.788574 L297.000488,255.788574 L297.910156,251.121582 L294.508789,251.121582 L294.508789,249.289062 L298.266113,249.289062 L299.347168,243.804688 L301.232422,243.804688 L300.151367,249.289062 L303.631836,249.289062 L304.712891,243.804688 L306.611328,243.804688 L305.530273,249.289062 L308.219727,249.289062 L308.219727,251.121582 L305.174316,251.121582 L304.264648,255.788574 L307.230957,255.788574 L307.230957,257.594727 L303.921875,257.594727 L302.867188,263 L300.96875,263 L302.023438,257.594727 Z M298.885742,255.788574 L302.366211,255.788574 L303.275879,251.121582 L299.79541,251.121582 L298.885742,255.788574 Z M314.137207,257.581543 L311.935547,257.581543 L311.76416,243.804688 L314.321777,243.804688 L314.137207,257.581543 Z M311.671875,261.773926 C311.671875,261.378416 311.792723,261.046632 312.034424,260.778564 C312.276124,260.510497 312.634275,260.376465 313.108887,260.376465 C313.583498,260.376465 313.943846,260.510497 314.189941,260.778564 C314.436036,261.046632 314.559082,261.378416 314.559082,261.773926 C314.559082,262.169436 314.436036,262.496825 314.189941,262.756104 C313.943846,263.015382 313.583498,263.14502 313.108887,263.14502 C312.634275,263.14502 312.276124,263.015382 312.034424,262.756104 C311.792723,262.496825 311.671875,262.169436 311.671875,261.773926 Z M322.216797,257.594727 C322.234375,256.548823 322.353026,255.722659 322.572754,255.116211 C322.792482,254.509763 323.240719,253.837406 323.91748,253.099121 L325.644531,251.319336 C326.382816,250.484371 326.751953,249.587895 326.751953,248.629883 C326.751953,247.707027 326.510256,246.984133 326.026855,246.461182 C325.543455,245.93823 324.840337,245.676758 323.91748,245.676758 C323.020992,245.676758 322.300296,245.91406 321.755371,246.388672 C321.210446,246.863284 320.937988,247.500484 320.937988,248.300293 L318.499023,248.300293 C318.516602,246.876458 319.024165,245.727299 320.021729,244.852783 C321.019292,243.978267 322.317863,243.541016 323.91748,243.541016 C325.578622,243.541016 326.872798,243.987056 327.800049,244.87915 C328.7273,245.771245 329.190918,246.995109 329.190918,248.550781 C329.190918,250.088875 328.479011,251.604973 327.055176,253.099121 L325.618164,254.522949 C324.976559,255.234867 324.655762,256.258782 324.655762,257.594727 L322.216797,257.594727 Z M322.111328,261.773926 C322.111328,261.378416 322.232177,261.046632 322.473877,260.778564 C322.715577,260.510497 323.073728,260.376465 323.54834,260.376465 C324.022952,260.376465 324.3833,260.510497 324.629395,260.778564 C324.87549,261.046632 324.998535,261.378416 324.998535,261.773926 C324.998535,262.169436 324.87549,262.496825 324.629395,262.756104 C324.3833,263.015382 324.022952,263.14502 323.54834,263.14502 C323.073728,263.14502 322.715577,263.015382 322.473877,262.756104 C322.232177,262.496825 322.111328,262.169436 322.111328,261.773926 Z M338.733887,255.340332 C338.733887,257.300303 338.476809,259.178946 337.962646,260.976318 C337.448484,262.773691 336.661871,264.43261 335.602783,265.953125 C334.543696,267.47364 333.434088,268.554684 332.273926,269.196289 L331.759766,267.706543 C333.113288,266.669428 334.200924,265.058849 335.022705,262.874756 C335.844487,260.690663 336.26416,258.267103 336.281738,255.604004 L336.281738,255.182129 C336.281738,253.336417 336.088381,251.620369 335.70166,250.033936 C335.314939,248.447502 334.776615,247.025885 334.08667,245.769043 C333.396725,244.512201 332.621098,243.53223 331.759766,242.829102 L332.273926,241.339355 C333.434088,241.98096 334.539301,243.053215 335.5896,244.556152 C336.639898,246.05909 337.426511,247.715811 337.949463,249.526367 C338.472415,251.336923 338.733887,253.274892 338.733887,255.340332 Z" id="abcdefghijklmnopqrst-copy-2"></path>
            <path d="M10.0048828,131.782227 L5.87402344,131.782227 L5.87402344,140 L2.16796875,140 L2.16796875,118.671875 L9.66796875,118.671875 C12.1289186,118.671875 14.0283136,119.223627 15.3662109,120.327148 C16.7041083,121.43067 17.3730469,123.027333 17.3730469,125.117188 C17.3730469,126.542976 17.028812,127.736812 16.340332,128.69873 C15.651852,129.660649 14.692389,130.400388 13.4619141,130.917969 L18.2519531,139.80957 L18.2519531,140 L14.2822266,140 L10.0048828,131.782227 Z M5.87402344,128.808594 L9.68261719,128.808594 C10.9326234,128.808594 11.9091762,128.493655 12.6123047,127.86377 C13.3154332,127.233884 13.6669922,126.372076 13.6669922,125.27832 C13.6669922,124.135736 13.3422884,123.251956 12.6928711,122.626953 C12.0434538,122.00195 11.0742252,121.679688 9.78515625,121.660156 L5.87402344,121.660156 L5.87402344,128.808594 Z M19.8779297,131.928711 C19.8779297,130.375969 20.1855438,128.977057 20.8007812,127.731934 C21.4160187,126.48681 22.2802679,125.529789 23.3935547,124.86084 C24.5068415,124.191891 25.7861256,123.857422 27.2314453,123.857422 C29.3701279,123.857422 31.1059504,124.545892 32.4389648,125.922852 C33.7719793,127.299812 34.492187,129.125965 34.5996094,131.401367 L34.6142578,132.236328 C34.6142578,133.798836 34.3139678,135.195306 33.7133789,136.425781 C33.11279,137.656256 32.2534236,138.608395 31.1352539,139.282227 C30.0170843,139.956058 28.7255933,140.292969 27.2607422,140.292969 C25.0244029,140.292969 23.23487,139.548347 21.8920898,138.059082 C20.5493097,136.569817 19.8779297,134.584973 19.8779297,132.104492 L19.8779297,131.928711 Z M23.4375,132.236328 C23.4375,133.867196 23.7744107,135.144038 24.4482422,136.066895 C25.1220737,136.989751 26.0595643,137.451172 27.2607422,137.451172 C28.4619201,137.451172 29.3969693,136.982427 30.065918,136.044922 C30.7348666,135.107417 31.0693359,133.735361 31.0693359,131.928711 C31.0693359,130.32714 30.7251011,129.057622 30.0366211,128.120117 C29.3481411,127.182613 28.4130918,126.713867 27.2314453,126.713867 C26.0693301,126.713867 25.1464878,127.175288 24.4628906,128.098145 C23.7792935,129.021001 23.4375,130.400381 23.4375,132.236328 Z M51.5332031,132.236328 C51.5332031,134.697278 50.9838922,136.655266 49.8852539,138.110352 C48.7866156,139.565437 47.2754002,140.292969 45.3515625,140.292969 C43.4960845,140.292969 42.0507864,139.62403 41.015625,138.286133 L40.8398438,140 L37.6171875,140 L37.6171875,117.5 L41.1767578,117.5 L41.1767578,125.673828 C42.2021536,124.462885 43.5839757,123.857422 45.3222656,123.857422 C47.255869,123.857422 48.7744085,124.575188 49.8779297,126.010742 C50.9814508,127.446296 51.5332031,129.453112 51.5332031,132.03125 L51.5332031,132.236328 Z M47.9736328,131.928711 C47.9736328,130.209952 47.6709015,128.920903 47.0654297,128.061523 C46.4599579,127.202144 45.5810604,126.772461 44.4287109,126.772461 C42.8857345,126.772461 41.8017609,127.446282 41.1767578,128.793945 L41.1767578,135.327148 C41.8115266,136.704108 42.9052657,137.392578 44.4580078,137.392578 C45.5712946,137.392578 46.430661,136.977543 47.0361328,136.147461 C47.6416046,135.317379 47.9541015,134.062508 47.9736328,132.382812 L47.9736328,131.928711 Z M53.8476562,131.928711 C53.8476562,130.375969 54.1552704,128.977057 54.7705078,127.731934 C55.3857453,126.48681 56.2499944,125.529789 57.3632812,124.86084 C58.4765681,124.191891 59.7558521,123.857422 61.2011719,123.857422 C63.3398544,123.857422 65.0756769,124.545892 66.4086914,125.922852 C67.7417059,127.299812 68.4619135,129.125965 68.5693359,131.401367 L68.5839844,132.236328 C68.5839844,133.798836 68.2836944,135.195306 67.6831055,136.425781 C67.0825165,137.656256 66.2231501,138.608395 65.1049805,139.282227 C63.9868108,139.956058 62.6953198,140.292969 61.2304688,140.292969 C58.9941294,140.292969 57.2045966,139.548347 55.8618164,138.059082 C54.5190363,136.569817 53.8476562,134.584973 53.8476562,132.104492 L53.8476562,131.928711 Z M57.4072266,132.236328 C57.4072266,133.867196 57.7441373,135.144038 58.4179688,136.066895 C59.0918002,136.989751 60.0292909,137.451172 61.2304688,137.451172 C62.4316466,137.451172 63.3666959,136.982427 64.0356445,136.044922 C64.7045932,135.107417 65.0390625,133.735361 65.0390625,131.928711 C65.0390625,130.32714 64.6948277,129.057622 64.0063477,128.120117 C63.3178677,127.182613 62.3828184,126.713867 61.2011719,126.713867 C60.0390567,126.713867 59.1162144,127.175288 58.4326172,128.098145 C57.74902,129.021001 57.4072266,130.400381 57.4072266,132.236328 Z M76.0546875,120.297852 L76.0546875,124.150391 L78.8525391,124.150391 L78.8525391,126.787109 L76.0546875,126.787109 L76.0546875,135.634766 C76.0546875,136.240237 76.1743152,136.677245 76.4135742,136.945801 C76.6528332,137.214357 77.080075,137.348633 77.6953125,137.348633 C78.1054708,137.348633 78.5205057,137.299805 78.9404297,137.202148 L78.9404297,139.956055 C78.1298788,140.180665 77.3486366,140.292969 76.5966797,140.292969 C73.862291,140.292969 72.4951172,138.784195 72.4951172,135.766602 L72.4951172,126.787109 L69.8876953,126.787109 L69.8876953,124.150391 L72.4951172,124.150391 L72.4951172,120.297852 L76.0546875,120.297852 Z M80.9033203,131.928711 C80.9033203,130.375969 81.2109344,128.977057 81.8261719,127.731934 C82.4414093,126.48681 83.3056585,125.529789 84.4189453,124.86084 C85.5322321,124.191891 86.8115162,123.857422 88.2568359,123.857422 C90.3955185,123.857422 92.131341,124.545892 93.4643555,125.922852 C94.7973699,127.299812 95.5175776,129.125965 95.625,131.401367 L95.6396484,132.236328 C95.6396484,133.798836 95.3393585,135.195306 94.7387695,136.425781 C94.1381806,137.656256 93.2788142,138.608395 92.1606445,139.282227 C91.0424749,139.956058 89.7509839,140.292969 88.2861328,140.292969 C86.0497935,140.292969 84.2602606,139.548347 82.9174805,138.059082 C81.5747003,136.569817 80.9033203,134.584973 80.9033203,132.104492 L80.9033203,131.928711 Z M84.4628906,132.236328 C84.4628906,133.867196 84.7998013,135.144038 85.4736328,136.066895 C86.1474643,136.989751 87.0849549,137.451172 88.2861328,137.451172 C89.4873107,137.451172 90.4223599,136.982427 91.0913086,136.044922 C91.7602573,135.107417 92.0947266,133.735361 92.0947266,131.928711 C92.0947266,130.32714 91.7504917,129.057622 91.0620117,128.120117 C90.3735317,127.182613 89.4384825,126.713867 88.2568359,126.713867 C87.0947208,126.713867 86.1718784,127.175288 85.4882812,128.098145 C84.8046841,129.021001 84.4628906,130.400381 84.4628906,132.236328 Z" id="Roboto"></path>
        </g>
    </g>
</svg>